<mxfile host="app.diagrams.net" modified="2021-11-15T03:15:28.771Z" agent="5.0 (Windows NT 10.0; Win64; x64) AppleWebKit/537.36 (KHTML, like Gecko) Chrome/95.0.4638.69 Safari/537.36" etag="SybvDhHmfdx_aRoKgWfI" version="15.2.9" type="github">
  <diagram id="qRrHrMH-KAkJ9TPs-jhk" name="Page-1">
    <mxGraphModel dx="3307" dy="2455" grid="1" gridSize="10" guides="1" tooltips="1" connect="1" arrows="1" fold="1" page="1" pageScale="1" pageWidth="827" pageHeight="1169" math="0" shadow="0">
      <root>
        <mxCell id="0" />
        <mxCell id="1" parent="0" />
        <mxCell id="8vD22_smCyKk7x_BGVz0-173" value="" style="rounded=0;whiteSpace=wrap;html=1;fillColor=none;strokeColor=#d3d3d3;strokeWidth=2;fontSize=25;" vertex="1" parent="1">
          <mxGeometry x="-90" y="7620" width="1980" height="670" as="geometry" />
        </mxCell>
        <mxCell id="8vD22_smCyKk7x_BGVz0-2" value="" style="rounded=0;whiteSpace=wrap;html=1;fillColor=#fff2cc;strokeColor=#d6b656;strokeWidth=2;fontSize=14;" vertex="1" parent="1">
          <mxGeometry x="-220" y="-950" width="2280" height="10330" as="geometry" />
        </mxCell>
        <mxCell id="8vD22_smCyKk7x_BGVz0-3" value="" style="rounded=0;whiteSpace=wrap;html=1;" vertex="1" parent="1">
          <mxGeometry x="-110" y="-740" width="2090" height="1090" as="geometry" />
        </mxCell>
        <mxCell id="8vD22_smCyKk7x_BGVz0-4" value="Contexto del sistema" style="text;strokeColor=none;fillColor=none;html=1;fontSize=35;fontStyle=1;verticalAlign=middle;align=center;" vertex="1" parent="1">
          <mxGeometry x="-70" y="-690" width="352" height="40" as="geometry" />
        </mxCell>
        <mxCell id="8vD22_smCyKk7x_BGVz0-6" value="" style="rounded=0;whiteSpace=wrap;html=1;fillColor=none;strokeWidth=4;dashed=1;" vertex="1" parent="1">
          <mxGeometry x="-50" y="-220" width="1950" height="530" as="geometry" />
        </mxCell>
        <mxCell id="8vD22_smCyKk7x_BGVz0-7" value="&lt;div style=&quot;font-size: 37px&quot;&gt;&lt;font style=&quot;font-size: 37px&quot;&gt;&lt;b style=&quot;font-size: 37px&quot;&gt;AUTENTICACION BIOMETRICA APP/WEB&lt;br style=&quot;font-size: 37px&quot;&gt;&lt;/b&gt;&lt;/font&gt;&lt;/div&gt;&lt;div style=&quot;font-size: 37px&quot;&gt;&lt;br style=&quot;font-size: 37px&quot;&gt;&lt;/div&gt;&lt;div style=&quot;font-size: 37px&quot;&gt;Todo el personal que desee ingresar al Tecnologico de Antioquia debe registrarse como usuario en la version APP del proyecto, y registrar sus datos biometricos, en este caso el rostro, para un&amp;nbsp;&lt;/div&gt;proceso&amp;nbsp;&lt;span&gt;posterior de autenticación en la versión WEB que será administrada por el personal de seguridad de la insitución en los puntos de accesos físicos.&lt;/span&gt;" style="rounded=0;whiteSpace=wrap;html=1;fillColor=#6a00ff;strokeColor=#3700CC;fontColor=#ffffff;fontSize=37;" vertex="1" parent="1">
          <mxGeometry x="345" y="-170" width="1180" height="450" as="geometry" />
        </mxCell>
        <mxCell id="8vD22_smCyKk7x_BGVz0-8" value="Use" style="endArrow=open;endSize=12;dashed=1;html=1;exitX=0.5;exitY=1;exitDx=0;exitDy=0;entryX=0.5;entryY=0;entryDx=0;entryDy=0;exitPerimeter=0;fontSize=30;fontStyle=1" edge="1" parent="1" source="8vD22_smCyKk7x_BGVz0-139" target="8vD22_smCyKk7x_BGVz0-7">
          <mxGeometry width="160" relative="1" as="geometry">
            <mxPoint x="805" y="-29.999999999999773" as="sourcePoint" />
            <mxPoint x="315" y="29.5" as="targetPoint" />
            <Array as="points" />
          </mxGeometry>
        </mxCell>
        <mxCell id="8vD22_smCyKk7x_BGVz0-13" value="" style="rounded=0;whiteSpace=wrap;html=1;" vertex="1" parent="1">
          <mxGeometry x="-110" y="410" width="2090" height="2310" as="geometry" />
        </mxCell>
        <mxCell id="8vD22_smCyKk7x_BGVz0-14" value="Contexto del contenedores" style="text;strokeColor=none;fillColor=none;html=1;fontSize=35;fontStyle=1;verticalAlign=middle;align=center;" vertex="1" parent="1">
          <mxGeometry x="-55" y="440" width="475" height="40" as="geometry" />
        </mxCell>
        <mxCell id="8vD22_smCyKk7x_BGVz0-15" value="" style="rounded=0;whiteSpace=wrap;html=1;fillColor=none;strokeWidth=4;dashed=1;" vertex="1" parent="1">
          <mxGeometry x="-45" y="960" width="1935" height="1630" as="geometry" />
        </mxCell>
        <mxCell id="8vD22_smCyKk7x_BGVz0-16" value="&lt;div style=&quot;font-size: 35px&quot;&gt;&lt;span style=&quot;font-size: 35px&quot;&gt;&lt;b style=&quot;font-size: 35px&quot;&gt;AUTENTICACION-BIOMETRICA&lt;/b&gt;&lt;/span&gt;&lt;/div&gt;&lt;div style=&quot;font-size: 35px&quot;&gt;&lt;font style=&quot;font-size: 35px&quot;&gt;&lt;b style=&quot;font-size: 35px&quot;&gt;Sistema web&lt;br style=&quot;font-size: 35px&quot;&gt;&lt;/b&gt;&lt;/font&gt;&lt;/div&gt;&lt;div style=&quot;font-size: 35px&quot;&gt;&lt;font style=&quot;font-size: 35px&quot;&gt;&lt;span style=&quot;font-size: 35px&quot;&gt;(Ionic. Angular)&lt;/span&gt;&lt;b style=&quot;font-size: 35px&quot;&gt;&lt;br style=&quot;font-size: 35px&quot;&gt;&lt;/b&gt;&lt;/font&gt;&lt;/div&gt;&lt;div style=&quot;font-size: 35px&quot;&gt;&lt;br style=&quot;font-size: 35px&quot;&gt;&lt;/div&gt;&lt;div style=&quot;font-size: 35px&quot;&gt;Aplicación híbrida (WEB, ANDROID)&lt;/div&gt;" style="rounded=0;whiteSpace=wrap;html=1;fillColor=#6a00ff;strokeColor=#3700CC;fontColor=#ffffff;fontSize=35;" vertex="1" parent="1">
          <mxGeometry x="35" y="1110" width="660" height="286" as="geometry" />
        </mxCell>
        <mxCell id="8vD22_smCyKk7x_BGVz0-18" value="&lt;div style=&quot;font-size: 35px&quot;&gt;&lt;b&gt;piloto-autenticacion-biometrica&lt;/b&gt;&lt;/div&gt;&lt;div style=&quot;font-size: 35px&quot;&gt;&lt;font style=&quot;font-size: 35px&quot;&gt;&lt;span style=&quot;font-size: 35px&quot;&gt;(APIREST. SPRING BOOT. JAVA 11)&lt;/span&gt;&lt;b style=&quot;font-size: 35px&quot;&gt;&lt;br style=&quot;font-size: 35px&quot;&gt;&lt;/b&gt;&lt;/font&gt;&lt;/div&gt;&lt;div style=&quot;font-size: 35px&quot;&gt;&lt;br style=&quot;font-size: 35px&quot;&gt;&lt;/div&gt;&lt;div style=&quot;font-size: 35px&quot;&gt;Esta API provee los servicios necesarios para llevar acabo el proceso de registro de datos biometricos y la autenticación biometrica. Además, diferentes proceso del modulo administrativo.&lt;br style=&quot;font-size: 35px&quot;&gt;&lt;/div&gt;" style="rounded=0;whiteSpace=wrap;html=1;fillColor=#6a00ff;strokeColor=#3700CC;fontColor=#ffffff;fontSize=35;" vertex="1" parent="1">
          <mxGeometry x="591.62" y="1640" width="666.75" height="410" as="geometry" />
        </mxCell>
        <mxCell id="8vD22_smCyKk7x_BGVz0-19" value="Consume HTTP" style="endArrow=open;endSize=12;dashed=1;html=1;exitX=0.25;exitY=1;exitDx=0;exitDy=0;entryX=0;entryY=0.25;entryDx=0;entryDy=0;fontSize=35;fontStyle=1" edge="1" parent="1" source="8vD22_smCyKk7x_BGVz0-16" target="8vD22_smCyKk7x_BGVz0-18">
          <mxGeometry width="160" relative="1" as="geometry">
            <mxPoint x="330" y="1215" as="sourcePoint" />
            <mxPoint x="490" y="1215" as="targetPoint" />
            <Array as="points">
              <mxPoint x="200" y="1750" />
            </Array>
          </mxGeometry>
        </mxCell>
        <mxCell id="8vD22_smCyKk7x_BGVz0-23" value="&lt;div style=&quot;font-size: 35px;&quot;&gt;&lt;font style=&quot;font-size: 35px;&quot;&gt;&lt;b style=&quot;font-size: 35px;&quot;&gt;autenticacion-biometrica-apigateway&lt;/b&gt;&lt;/font&gt;&lt;/div&gt;&lt;div style=&quot;font-size: 35px;&quot;&gt;&lt;div style=&quot;font-size: 35px;&quot;&gt;&lt;font style=&quot;font-size: 35px;&quot;&gt;&lt;span style=&quot;font-size: 35px;&quot;&gt;(APIREST. API GATEWAY. AWS)&lt;/span&gt;&lt;b style=&quot;font-size: 35px;&quot;&gt;&lt;br style=&quot;font-size: 35px;&quot;&gt;&lt;/b&gt;&lt;/font&gt;&lt;/div&gt;&lt;/div&gt;&lt;div style=&quot;font-size: 35px;&quot;&gt;&lt;br style=&quot;font-size: 35px;&quot;&gt;&lt;/div&gt;&lt;div style=&quot;font-size: 35px;&quot;&gt;&lt;br style=&quot;font-size: 35px;&quot;&gt;&lt;/div&gt;" style="rounded=0;whiteSpace=wrap;html=1;fillColor=#6a00ff;strokeColor=#3700CC;fontColor=#ffffff;fontSize=35;" vertex="1" parent="1">
          <mxGeometry x="593.25" y="2230" width="655" height="240" as="geometry" />
        </mxCell>
        <mxCell id="8vD22_smCyKk7x_BGVz0-24" value="Consume HTTPS" style="endArrow=open;endSize=12;dashed=1;html=1;entryX=0.5;entryY=0;entryDx=0;entryDy=0;exitX=0.5;exitY=1;exitDx=0;exitDy=0;fontSize=35;fontStyle=1" edge="1" parent="1" source="8vD22_smCyKk7x_BGVz0-18" target="8vD22_smCyKk7x_BGVz0-23">
          <mxGeometry x="-0.106" y="-11" width="160" relative="1" as="geometry">
            <mxPoint x="472.99" y="1654.04" as="sourcePoint" />
            <mxPoint x="610" y="1651.5" as="targetPoint" />
            <Array as="points" />
            <mxPoint as="offset" />
          </mxGeometry>
        </mxCell>
        <mxCell id="8vD22_smCyKk7x_BGVz0-25" value="Leer/escribir" style="endArrow=open;endSize=12;dashed=1;html=1;exitX=0;exitY=0.5;exitDx=0;exitDy=0;fontSize=35;fontStyle=1;" edge="1" parent="1" source="8vD22_smCyKk7x_BGVz0-18">
          <mxGeometry width="160" relative="1" as="geometry">
            <mxPoint x="725.0000000000002" y="1525" as="sourcePoint" />
            <mxPoint x="190" y="2054" as="targetPoint" />
            <Array as="points">
              <mxPoint x="196" y="1845" />
            </Array>
          </mxGeometry>
        </mxCell>
        <mxCell id="8vD22_smCyKk7x_BGVz0-26" value="df" style="strokeWidth=2;html=1;shape=mxgraph.flowchart.database;whiteSpace=wrap;fontColor=#FFFFFF;" vertex="1" parent="1">
          <mxGeometry x="-5" y="2060" width="480" height="230" as="geometry" />
        </mxCell>
        <mxCell id="8vD22_smCyKk7x_BGVz0-27" value="&lt;div style=&quot;font-size: 37px&quot;&gt;&lt;font style=&quot;font-size: 37px&quot;&gt;MySQL&lt;/font&gt;&lt;/div&gt;&lt;div style=&quot;font-size: 37px&quot;&gt;autenticacion-biometrica&lt;/div&gt;" style="text;html=1;strokeColor=none;fillColor=none;align=center;verticalAlign=middle;whiteSpace=wrap;rounded=0;fontSize=37;" vertex="1" parent="1">
          <mxGeometry x="6" y="2150" width="429" height="120" as="geometry" />
        </mxCell>
        <mxCell id="8vD22_smCyKk7x_BGVz0-31" value="" style="rounded=0;whiteSpace=wrap;html=1;" vertex="1" parent="1">
          <mxGeometry x="-130" y="7510" width="2100" height="1810" as="geometry" />
        </mxCell>
        <mxCell id="8vD22_smCyKk7x_BGVz0-32" value="Diagrama de clases" style="text;strokeColor=none;fillColor=none;html=1;fontSize=35;fontStyle=1;verticalAlign=middle;align=center;" vertex="1" parent="1">
          <mxGeometry x="-90" y="7550" width="340" height="40" as="geometry" />
        </mxCell>
        <mxCell id="8vD22_smCyKk7x_BGVz0-38" value="" style="rounded=0;whiteSpace=wrap;html=1;" vertex="1" parent="1">
          <mxGeometry x="-130" y="2870" width="2100" height="4590" as="geometry" />
        </mxCell>
        <mxCell id="8vD22_smCyKk7x_BGVz0-39" value="Diagrama de componentes" style="text;strokeColor=none;fillColor=none;html=1;fontSize=35;fontStyle=1;verticalAlign=middle;align=center;" vertex="1" parent="1">
          <mxGeometry x="-71" y="2903" width="485" height="40" as="geometry" />
        </mxCell>
        <mxCell id="8vD22_smCyKk7x_BGVz0-121" value="AUTENTICACION BIOMETRICA - MODELO C4" style="text;strokeColor=none;fillColor=none;html=1;fontSize=33;fontStyle=1;verticalAlign=middle;align=center;strokeWidth=5;" vertex="1" parent="1">
          <mxGeometry x="-120" y="-890" width="759" height="40" as="geometry" />
        </mxCell>
        <mxCell id="8vD22_smCyKk7x_BGVz0-122" value="" style="line;strokeWidth=4;fillColor=none;align=left;verticalAlign=middle;spacingTop=-1;spacingLeft=3;spacingRight=3;rotatable=0;labelPosition=right;points=[];portConstraint=eastwest;fontSize=14;" vertex="1" parent="1">
          <mxGeometry x="-106" y="-830" width="920" height="8" as="geometry" />
        </mxCell>
        <mxCell id="8vD22_smCyKk7x_BGVz0-126" value="Use" style="endArrow=open;endSize=12;dashed=1;html=1;exitX=0;exitY=0.75;exitDx=0;exitDy=0;entryX=0.25;entryY=0;entryDx=0;entryDy=0;exitPerimeter=0;fontSize=35;fontStyle=1" edge="1" parent="1" source="8vD22_smCyKk7x_BGVz0-140" target="8vD22_smCyKk7x_BGVz0-16">
          <mxGeometry width="160" relative="1" as="geometry">
            <mxPoint x="761.25" y="830.0000000000005" as="sourcePoint" />
            <mxPoint x="701.25" y="750" as="targetPoint" />
            <Array as="points">
              <mxPoint x="200" y="740" />
            </Array>
          </mxGeometry>
        </mxCell>
        <object placeholders="1" c4Name="Personal diferente a equipo de seguridad del TDEA" c4Type="Person" c4Description="Esta es la representación de estudiantes, profesores, &#xa;personal administrativos y terceros&#xa; que deseen ingresar al TDEA" label="&lt;b style=&quot;font-size: 36px;&quot;&gt;%c4Name%&lt;/b&gt;&lt;div style=&quot;font-size: 36px;&quot;&gt;[%c4Type%]&lt;/div&gt;&lt;br style=&quot;font-size: 36px;&quot;&gt;&lt;div style=&quot;font-size: 36px;&quot;&gt;%c4Description%&lt;/div&gt;" id="8vD22_smCyKk7x_BGVz0-139">
          <mxCell style="html=1;dashed=0;whitespace=wrap;fillColor=#08427b;strokeColor=none;fontColor=#ffffff;shape=mxgraph.c4.person;align=center;metaEdit=1;points=[[0.5,0,0],[1,0.5,0],[1,0.75,0],[0.75,1,0],[0.5,1,0],[0.25,1,0],[0,0.75,0],[0,0.5,0]];metaData={&quot;c4Type&quot;:{&quot;editable&quot;:false}};fontSize=36;" vertex="1" parent="1">
            <mxGeometry x="470" y="-660" width="930" height="360" as="geometry" />
          </mxCell>
        </object>
        <object placeholders="1" c4Name="Personal diferente a equipo de seguridad del TDEA" c4Type="Person" c4Description="Esta es la representación de estudiantes, profesores, &#xa;personal administrativos y terceros&#xa; que deseen ingresar al TDEA" label="&lt;b style=&quot;font-size: 35px;&quot;&gt;%c4Name%&lt;/b&gt;&lt;div style=&quot;font-size: 35px;&quot;&gt;[%c4Type%]&lt;/div&gt;&lt;br style=&quot;font-size: 35px;&quot;&gt;&lt;div style=&quot;font-size: 35px;&quot;&gt;%c4Description%&lt;/div&gt;" id="8vD22_smCyKk7x_BGVz0-140">
          <mxCell style="html=1;dashed=0;whitespace=wrap;fillColor=#08427b;strokeColor=none;fontColor=#ffffff;shape=mxgraph.c4.person;align=center;metaEdit=1;points=[[0.5,0,0],[1,0.5,0],[1,0.75,0],[0.75,1,0],[0.5,1,0],[0.25,1,0],[0,0.75,0],[0,0.5,0]];metaData={&quot;c4Type&quot;:{&quot;editable&quot;:false}};fontSize=35;" vertex="1" parent="1">
            <mxGeometry x="440" y="470" width="930" height="360" as="geometry" />
          </mxCell>
        </object>
        <mxCell id="8vD22_smCyKk7x_BGVz0-141" value="&lt;div style=&quot;font-size: 35px&quot;&gt;&lt;b&gt;AUTENTICACION-BIOMETRICA&lt;/b&gt;&lt;br&gt;&lt;/div&gt;&lt;div style=&quot;font-size: 35px&quot;&gt;&lt;font style=&quot;font-size: 35px&quot;&gt;&lt;b style=&quot;font-size: 35px&quot;&gt;APP&lt;/b&gt;&lt;/font&gt;&lt;/div&gt;&lt;div style=&quot;font-size: 35px&quot;&gt;&lt;font style=&quot;font-size: 35px&quot;&gt;&lt;span style=&quot;font-size: 35px&quot;&gt;(Ionic. Angular)&lt;/span&gt;&lt;b style=&quot;font-size: 35px&quot;&gt;&lt;br style=&quot;font-size: 35px&quot;&gt;&lt;/b&gt;&lt;/font&gt;&lt;/div&gt;&lt;div style=&quot;font-size: 35px&quot;&gt;&lt;br style=&quot;font-size: 35px&quot;&gt;&lt;/div&gt;&lt;div style=&quot;font-size: 35px&quot;&gt;Aplicación híbrida (WEB, ANDROID)&lt;/div&gt;" style="rounded=0;whiteSpace=wrap;html=1;fillColor=#6a00ff;strokeColor=#3700CC;fontColor=#ffffff;fontSize=35;" vertex="1" parent="1">
          <mxGeometry x="1170" y="1110" width="660" height="286" as="geometry" />
        </mxCell>
        <mxCell id="8vD22_smCyKk7x_BGVz0-142" value="Use" style="endArrow=open;endSize=12;dashed=1;html=1;exitX=1;exitY=0.75;exitDx=0;exitDy=0;entryX=0.75;entryY=0;entryDx=0;entryDy=0;exitPerimeter=0;fontSize=35;fontStyle=1" edge="1" parent="1" source="8vD22_smCyKk7x_BGVz0-140" target="8vD22_smCyKk7x_BGVz0-141">
          <mxGeometry width="160" relative="1" as="geometry">
            <mxPoint x="450" y="750" as="sourcePoint" />
            <mxPoint x="210" y="1090.0000000000005" as="targetPoint" />
            <Array as="points">
              <mxPoint x="1665" y="740" />
            </Array>
          </mxGeometry>
        </mxCell>
        <mxCell id="8vD22_smCyKk7x_BGVz0-143" value="Consume HTTP" style="endArrow=open;endSize=12;dashed=1;html=1;exitX=0.75;exitY=1;exitDx=0;exitDy=0;entryX=1;entryY=0.25;entryDx=0;entryDy=0;fontSize=35;fontStyle=1" edge="1" parent="1" source="8vD22_smCyKk7x_BGVz0-141" target="8vD22_smCyKk7x_BGVz0-18">
          <mxGeometry width="160" relative="1" as="geometry">
            <mxPoint x="209.99999999999955" y="1376" as="sourcePoint" />
            <mxPoint x="606.6199999999999" y="1572.5" as="targetPoint" />
            <Array as="points">
              <mxPoint x="1670" y="1743" />
            </Array>
          </mxGeometry>
        </mxCell>
        <mxCell id="8vD22_smCyKk7x_BGVz0-144" value="user" style="swimlane;fontStyle=3;align=center;verticalAlign=top;childLayout=stackLayout;horizontal=1;startSize=50;horizontalStack=0;resizeParent=1;resizeLast=0;collapsible=1;marginBottom=0;rounded=0;shadow=0;strokeWidth=1;fontSize=35;" vertex="1" parent="1">
          <mxGeometry x="-8" y="7815" width="448" height="485" as="geometry">
            <mxRectangle x="230" y="140" width="160" height="26" as="alternateBounds" />
          </mxGeometry>
        </mxCell>
        <mxCell id="8vD22_smCyKk7x_BGVz0-145" value="id: bigint" style="text;align=left;verticalAlign=top;spacingLeft=4;spacingRight=4;overflow=hidden;rotatable=0;points=[[0,0.5],[1,0.5]];portConstraint=eastwest;fontSize=35;" vertex="1" parent="8vD22_smCyKk7x_BGVz0-144">
          <mxGeometry y="50" width="448" height="50" as="geometry" />
        </mxCell>
        <mxCell id="8vD22_smCyKk7x_BGVz0-146" value="username: varchar(50)" style="text;align=left;verticalAlign=top;spacingLeft=4;spacingRight=4;overflow=hidden;rotatable=0;points=[[0,0.5],[1,0.5]];portConstraint=eastwest;rounded=0;shadow=0;html=0;fontSize=35;" vertex="1" parent="8vD22_smCyKk7x_BGVz0-144">
          <mxGeometry y="100" width="448" height="50" as="geometry" />
        </mxCell>
        <mxCell id="8vD22_smCyKk7x_BGVz0-147" value="password: varchar(150)" style="text;align=left;verticalAlign=top;spacingLeft=4;spacingRight=4;overflow=hidden;rotatable=0;points=[[0,0.5],[1,0.5]];portConstraint=eastwest;rounded=0;shadow=0;html=0;fontSize=35;" vertex="1" parent="8vD22_smCyKk7x_BGVz0-144">
          <mxGeometry y="150" width="448" height="50" as="geometry" />
        </mxCell>
        <mxCell id="8vD22_smCyKk7x_BGVz0-148" value="name: varchar(50)" style="text;align=left;verticalAlign=top;spacingLeft=4;spacingRight=4;overflow=hidden;rotatable=0;points=[[0,0.5],[1,0.5]];portConstraint=eastwest;rounded=0;shadow=0;html=0;fontSize=35;" vertex="1" parent="8vD22_smCyKk7x_BGVz0-144">
          <mxGeometry y="200" width="448" height="50" as="geometry" />
        </mxCell>
        <mxCell id="8vD22_smCyKk7x_BGVz0-149" value="lastname: varchar(100)" style="text;align=left;verticalAlign=top;spacingLeft=4;spacingRight=4;overflow=hidden;rotatable=0;points=[[0,0.5],[1,0.5]];portConstraint=eastwest;rounded=0;shadow=0;html=0;fontSize=35;" vertex="1" parent="8vD22_smCyKk7x_BGVz0-144">
          <mxGeometry y="250" width="448" height="50" as="geometry" />
        </mxCell>
        <mxCell id="8vD22_smCyKk7x_BGVz0-150" value="identification: varchar(20)" style="text;align=left;verticalAlign=top;spacingLeft=4;spacingRight=4;overflow=hidden;rotatable=0;points=[[0,0.5],[1,0.5]];portConstraint=eastwest;rounded=0;shadow=0;html=0;fontSize=35;" vertex="1" parent="8vD22_smCyKk7x_BGVz0-144">
          <mxGeometry y="300" width="448" height="60" as="geometry" />
        </mxCell>
        <mxCell id="8vD22_smCyKk7x_BGVz0-151" value="id_profile: bigint" style="text;align=left;verticalAlign=top;spacingLeft=4;spacingRight=4;overflow=hidden;rotatable=0;points=[[0,0.5],[1,0.5]];portConstraint=eastwest;rounded=0;shadow=0;html=0;fontSize=35;" vertex="1" parent="8vD22_smCyKk7x_BGVz0-144">
          <mxGeometry y="360" width="448" height="60" as="geometry" />
        </mxCell>
        <mxCell id="8vD22_smCyKk7x_BGVz0-152" value="" style="line;html=1;strokeWidth=1;align=left;verticalAlign=middle;spacingTop=-1;spacingLeft=3;spacingRight=3;rotatable=0;labelPosition=right;points=[];portConstraint=eastwest;" vertex="1" parent="8vD22_smCyKk7x_BGVz0-144">
          <mxGeometry y="420" width="448" height="8" as="geometry" />
        </mxCell>
        <mxCell id="8vD22_smCyKk7x_BGVz0-153" value="profile" style="swimlane;fontStyle=1;align=center;verticalAlign=top;childLayout=stackLayout;horizontal=1;startSize=60;horizontalStack=0;resizeParent=1;resizeLast=0;collapsible=1;marginBottom=0;rounded=0;shadow=0;strokeWidth=1;fontSize=35;" vertex="1" parent="1">
          <mxGeometry x="630" y="7810" width="345" height="260" as="geometry">
            <mxRectangle x="550" y="140" width="160" height="26" as="alternateBounds" />
          </mxGeometry>
        </mxCell>
        <mxCell id="8vD22_smCyKk7x_BGVz0-154" value="id: bigint" style="text;align=left;verticalAlign=top;spacingLeft=4;spacingRight=4;overflow=hidden;rotatable=0;points=[[0,0.5],[1,0.5]];portConstraint=eastwest;fontSize=35;" vertex="1" parent="8vD22_smCyKk7x_BGVz0-153">
          <mxGeometry y="60" width="345" height="50" as="geometry" />
        </mxCell>
        <mxCell id="8vD22_smCyKk7x_BGVz0-155" value="name: varchar(50)" style="text;align=left;verticalAlign=top;spacingLeft=4;spacingRight=4;overflow=hidden;rotatable=0;points=[[0,0.5],[1,0.5]];portConstraint=eastwest;rounded=0;shadow=0;html=0;fontSize=35;" vertex="1" parent="8vD22_smCyKk7x_BGVz0-153">
          <mxGeometry y="110" width="345" height="50" as="geometry" />
        </mxCell>
        <mxCell id="8vD22_smCyKk7x_BGVz0-156" value="id_resource: bigint" style="text;align=left;verticalAlign=top;spacingLeft=4;spacingRight=4;overflow=hidden;rotatable=0;points=[[0,0.5],[1,0.5]];portConstraint=eastwest;rounded=0;shadow=0;html=0;fontSize=35;" vertex="1" parent="8vD22_smCyKk7x_BGVz0-153">
          <mxGeometry y="160" width="345" height="60" as="geometry" />
        </mxCell>
        <mxCell id="8vD22_smCyKk7x_BGVz0-157" value="" style="line;html=1;strokeWidth=1;align=left;verticalAlign=middle;spacingTop=-1;spacingLeft=3;spacingRight=3;rotatable=0;labelPosition=right;points=[];portConstraint=eastwest;" vertex="1" parent="8vD22_smCyKk7x_BGVz0-153">
          <mxGeometry y="220" width="345" height="8" as="geometry" />
        </mxCell>
        <mxCell id="8vD22_smCyKk7x_BGVz0-158" value="1..1" style="endArrow=open;shadow=0;strokeWidth=1;rounded=0;endFill=1;edgeStyle=elbowEdgeStyle;elbow=vertical;exitX=0;exitY=0.5;exitDx=0;exitDy=0;fontSize=24;entryX=1;entryY=0.5;entryDx=0;entryDy=0;" edge="1" parent="1" source="8vD22_smCyKk7x_BGVz0-155" target="8vD22_smCyKk7x_BGVz0-145">
          <mxGeometry x="0.1359" y="-38" relative="1" as="geometry">
            <mxPoint x="150" y="7882" as="sourcePoint" />
            <mxPoint x="480" y="7878" as="targetPoint" />
            <mxPoint as="offset" />
            <Array as="points">
              <mxPoint x="175" y="7878" />
            </Array>
          </mxGeometry>
        </mxCell>
        <mxCell id="8vD22_smCyKk7x_BGVz0-159" value="" style="resizable=0;align=right;verticalAlign=bottom;labelBackgroundColor=none;fontSize=12;" connectable="0" vertex="1" parent="8vD22_smCyKk7x_BGVz0-158">
          <mxGeometry x="1" relative="1" as="geometry">
            <mxPoint x="-7" y="4" as="offset" />
          </mxGeometry>
        </mxCell>
        <mxCell id="8vD22_smCyKk7x_BGVz0-160" value="resource" style="swimlane;fontStyle=1;align=center;verticalAlign=top;childLayout=stackLayout;horizontal=1;startSize=60;horizontalStack=0;resizeParent=1;resizeLast=0;collapsible=1;marginBottom=0;rounded=0;shadow=0;strokeWidth=1;fontSize=35;" vertex="1" parent="1">
          <mxGeometry x="1135" y="7810" width="453" height="260" as="geometry">
            <mxRectangle x="550" y="140" width="160" height="26" as="alternateBounds" />
          </mxGeometry>
        </mxCell>
        <mxCell id="8vD22_smCyKk7x_BGVz0-161" value="id: bigint" style="text;align=left;verticalAlign=top;spacingLeft=4;spacingRight=4;overflow=hidden;rotatable=0;points=[[0,0.5],[1,0.5]];portConstraint=eastwest;fontSize=35;" vertex="1" parent="8vD22_smCyKk7x_BGVz0-160">
          <mxGeometry y="60" width="453" height="50" as="geometry" />
        </mxCell>
        <mxCell id="8vD22_smCyKk7x_BGVz0-162" value="name: varchar(50)" style="text;align=left;verticalAlign=top;spacingLeft=4;spacingRight=4;overflow=hidden;rotatable=0;points=[[0,0.5],[1,0.5]];portConstraint=eastwest;rounded=0;shadow=0;html=0;fontSize=35;" vertex="1" parent="8vD22_smCyKk7x_BGVz0-160">
          <mxGeometry y="110" width="453" height="50" as="geometry" />
        </mxCell>
        <mxCell id="8vD22_smCyKk7x_BGVz0-163" value="path: varchar(80)" style="text;align=left;verticalAlign=top;spacingLeft=4;spacingRight=4;overflow=hidden;rotatable=0;points=[[0,0.5],[1,0.5]];portConstraint=eastwest;rounded=0;shadow=0;html=0;fontSize=35;" vertex="1" parent="8vD22_smCyKk7x_BGVz0-160">
          <mxGeometry y="160" width="453" height="52" as="geometry" />
        </mxCell>
        <mxCell id="8vD22_smCyKk7x_BGVz0-164" value="" style="line;html=1;strokeWidth=1;align=left;verticalAlign=middle;spacingTop=-1;spacingLeft=3;spacingRight=3;rotatable=0;labelPosition=right;points=[];portConstraint=eastwest;" vertex="1" parent="8vD22_smCyKk7x_BGVz0-160">
          <mxGeometry y="212" width="453" height="40" as="geometry" />
        </mxCell>
        <mxCell id="8vD22_smCyKk7x_BGVz0-165" value="1..*" style="endArrow=open;shadow=0;strokeWidth=1;rounded=0;endFill=1;edgeStyle=elbowEdgeStyle;elbow=vertical;exitX=0;exitY=0.5;exitDx=0;exitDy=0;entryX=1;entryY=0.5;entryDx=0;entryDy=0;fontSize=25;" edge="1" parent="1" source="8vD22_smCyKk7x_BGVz0-162" target="8vD22_smCyKk7x_BGVz0-155">
          <mxGeometry relative="1" as="geometry">
            <mxPoint x="635" y="7890" as="sourcePoint" />
            <mxPoint x="650" y="7960" as="targetPoint" />
            <mxPoint as="offset" />
          </mxGeometry>
        </mxCell>
        <mxCell id="8vD22_smCyKk7x_BGVz0-166" value="" style="resizable=0;align=right;verticalAlign=bottom;labelBackgroundColor=none;fontSize=12;" connectable="0" vertex="1" parent="8vD22_smCyKk7x_BGVz0-165">
          <mxGeometry x="1" relative="1" as="geometry">
            <mxPoint x="-7" y="4" as="offset" />
          </mxGeometry>
        </mxCell>
        <mxCell id="8vD22_smCyKk7x_BGVz0-167" value="Diagrama relacional. Modulo ADMINISTRACION" style="text;html=1;resizable=0;points=[];autosize=1;align=left;verticalAlign=top;spacingTop=-4;fontSize=38;fontStyle=1" vertex="1" parent="1">
          <mxGeometry x="-43.5" y="7670" width="880" height="50" as="geometry" />
        </mxCell>
        <mxCell id="8vD22_smCyKk7x_BGVz0-168" value="" style="line;strokeWidth=2;html=1;fontSize=14;" vertex="1" parent="1">
          <mxGeometry x="-60" y="7730" width="910" height="10" as="geometry" />
        </mxCell>
        <mxCell id="8vD22_smCyKk7x_BGVz0-174" value="" style="rounded=0;whiteSpace=wrap;html=1;fillColor=none;strokeColor=#d3d3d3;strokeWidth=2;fontSize=25;" vertex="1" parent="1">
          <mxGeometry x="-90" y="8380" width="1980" height="900" as="geometry" />
        </mxCell>
        <mxCell id="8vD22_smCyKk7x_BGVz0-175" value="user" style="swimlane;fontStyle=3;align=center;verticalAlign=top;childLayout=stackLayout;horizontal=1;startSize=50;horizontalStack=0;resizeParent=1;resizeLast=0;collapsible=1;marginBottom=0;rounded=0;shadow=0;strokeWidth=1;fillColor=#76608a;strokeColor=#432D57;fontColor=#ffffff;fontSize=35;" vertex="1" parent="1">
          <mxGeometry x="670" y="8560" width="460" height="80" as="geometry">
            <mxRectangle x="230" y="140" width="160" height="26" as="alternateBounds" />
          </mxGeometry>
        </mxCell>
        <mxCell id="8vD22_smCyKk7x_BGVz0-176" value="user_info_biometric" style="swimlane;fontStyle=3;align=center;verticalAlign=top;childLayout=stackLayout;horizontal=1;startSize=50;horizontalStack=0;resizeParent=1;resizeLast=0;collapsible=1;marginBottom=0;rounded=0;shadow=0;strokeWidth=1;fontSize=35;" vertex="1" parent="1">
          <mxGeometry x="670" y="8709.5" width="460" height="500.5" as="geometry">
            <mxRectangle x="230" y="140" width="160" height="26" as="alternateBounds" />
          </mxGeometry>
        </mxCell>
        <mxCell id="8vD22_smCyKk7x_BGVz0-177" value="id: bigint" style="text;align=left;verticalAlign=top;spacingLeft=4;spacingRight=4;overflow=hidden;rotatable=0;points=[[0,0.5],[1,0.5]];portConstraint=eastwest;fontSize=35;" vertex="1" parent="8vD22_smCyKk7x_BGVz0-176">
          <mxGeometry y="50" width="460" height="60" as="geometry" />
        </mxCell>
        <mxCell id="8vD22_smCyKk7x_BGVz0-178" value="id_user: bigint" style="text;align=left;verticalAlign=top;spacingLeft=4;spacingRight=4;overflow=hidden;rotatable=0;points=[[0,0.5],[1,0.5]];portConstraint=eastwest;rounded=0;shadow=0;html=0;fontSize=35;" vertex="1" parent="8vD22_smCyKk7x_BGVz0-176">
          <mxGeometry y="110" width="460" height="60" as="geometry" />
        </mxCell>
        <mxCell id="8vD22_smCyKk7x_BGVz0-179" value="face_id: varchar(120)" style="text;align=left;verticalAlign=top;spacingLeft=4;spacingRight=4;overflow=hidden;rotatable=0;points=[[0,0.5],[1,0.5]];portConstraint=eastwest;rounded=0;shadow=0;html=0;fontSize=35;" vertex="1" parent="8vD22_smCyKk7x_BGVz0-176">
          <mxGeometry y="170" width="460" height="60" as="geometry" />
        </mxCell>
        <mxCell id="8vD22_smCyKk7x_BGVz0-180" value="external_id: varchar(50)" style="text;align=left;verticalAlign=top;spacingLeft=4;spacingRight=4;overflow=hidden;rotatable=0;points=[[0,0.5],[1,0.5]];portConstraint=eastwest;rounded=0;shadow=0;html=0;fontSize=35;" vertex="1" parent="8vD22_smCyKk7x_BGVz0-176">
          <mxGeometry y="230" width="460" height="60" as="geometry" />
        </mxCell>
        <mxCell id="8vD22_smCyKk7x_BGVz0-181" value="bucket_name: varchar(100)" style="text;align=left;verticalAlign=top;spacingLeft=4;spacingRight=4;overflow=hidden;rotatable=0;points=[[0,0.5],[1,0.5]];portConstraint=eastwest;rounded=0;shadow=0;html=0;fontSize=35;" vertex="1" parent="8vD22_smCyKk7x_BGVz0-176">
          <mxGeometry y="290" width="460" height="60" as="geometry" />
        </mxCell>
        <mxCell id="8vD22_smCyKk7x_BGVz0-182" value="file_name: varchar(100)" style="text;align=left;verticalAlign=top;spacingLeft=4;spacingRight=4;overflow=hidden;rotatable=0;points=[[0,0.5],[1,0.5]];portConstraint=eastwest;rounded=0;shadow=0;html=0;fontSize=35;" vertex="1" parent="8vD22_smCyKk7x_BGVz0-176">
          <mxGeometry y="350" width="460" height="70" as="geometry" />
        </mxCell>
        <mxCell id="8vD22_smCyKk7x_BGVz0-183" value="" style="line;html=1;strokeWidth=1;align=left;verticalAlign=middle;spacingTop=-1;spacingLeft=3;spacingRight=3;rotatable=0;labelPosition=right;points=[];portConstraint=eastwest;" vertex="1" parent="8vD22_smCyKk7x_BGVz0-176">
          <mxGeometry y="420" width="460" height="40" as="geometry" />
        </mxCell>
        <mxCell id="8vD22_smCyKk7x_BGVz0-184" value="" style="endArrow=open;shadow=0;strokeWidth=1;rounded=0;endFill=1;edgeStyle=elbowEdgeStyle;elbow=vertical;entryX=0.5;entryY=0;entryDx=0;entryDy=0;exitX=0.5;exitY=1;exitDx=0;exitDy=0;fontSize=35;" edge="1" parent="1" target="8vD22_smCyKk7x_BGVz0-176" source="8vD22_smCyKk7x_BGVz0-175">
          <mxGeometry x="0.5" y="41" relative="1" as="geometry">
            <mxPoint x="713" y="8590" as="sourcePoint" />
            <mxPoint x="834.5" y="8770" as="targetPoint" />
            <mxPoint x="-40" y="32" as="offset" />
          </mxGeometry>
        </mxCell>
        <mxCell id="8vD22_smCyKk7x_BGVz0-185" value="1..1" style="resizable=0;align=left;verticalAlign=bottom;labelBackgroundColor=none;fontSize=25;" connectable="0" vertex="1" parent="8vD22_smCyKk7x_BGVz0-184">
          <mxGeometry x="-1" relative="1" as="geometry">
            <mxPoint x="5" y="60" as="offset" />
          </mxGeometry>
        </mxCell>
        <mxCell id="8vD22_smCyKk7x_BGVz0-186" value="" style="resizable=0;align=right;verticalAlign=bottom;labelBackgroundColor=none;fontSize=12;" connectable="0" vertex="1" parent="8vD22_smCyKk7x_BGVz0-184">
          <mxGeometry x="1" relative="1" as="geometry">
            <mxPoint x="-7" y="4" as="offset" />
          </mxGeometry>
        </mxCell>
        <mxCell id="8vD22_smCyKk7x_BGVz0-187" value="Diagrama de relacional. Modulo REGISTRO/AUTENTICACION" style="text;html=1;resizable=0;points=[];autosize=1;align=left;verticalAlign=top;spacingTop=-4;fontSize=38;fontStyle=1" vertex="1" parent="1">
          <mxGeometry x="-35" y="8425" width="1120" height="50" as="geometry" />
        </mxCell>
        <mxCell id="8vD22_smCyKk7x_BGVz0-188" value="" style="line;strokeWidth=2;html=1;fontSize=14;" vertex="1" parent="1">
          <mxGeometry x="-50" y="8485" width="1170" height="10" as="geometry" />
        </mxCell>
        <mxCell id="8vD22_smCyKk7x_BGVz0-191" value="" style="rounded=0;whiteSpace=wrap;html=1;fillColor=none;strokeColor=#d3d3d3;strokeWidth=2;fontSize=25;" vertex="1" parent="1">
          <mxGeometry x="-90" y="7640" width="1980" height="710" as="geometry" />
        </mxCell>
        <mxCell id="8vD22_smCyKk7x_BGVz0-333" value="" style="shape=folder;tabWidth=1318;tabHeight=58;tabPosition=left;strokeWidth=2;html=1;whiteSpace=wrap;align=center;" vertex="1" parent="1">
          <mxGeometry x="-77.5" y="2972" width="1997.5" height="4428" as="geometry" />
        </mxCell>
        <mxCell id="8vD22_smCyKk7x_BGVz0-334" value="" style="shape=folder;tabWidth=950;tabHeight=70;tabPosition=left;strokeWidth=2;html=1;whiteSpace=wrap;align=center;" vertex="1" parent="1">
          <mxGeometry x="-20" y="3192.5" width="1870" height="1660" as="geometry" />
        </mxCell>
        <mxCell id="8vD22_smCyKk7x_BGVz0-335" value="&lt;b style=&quot;font-size: 35px;&quot;&gt;&lt;font style=&quot;font-size: 35px;&quot;&gt;com.&lt;/font&gt;&lt;/b&gt;&lt;font style=&quot;font-size: 35px;&quot;&gt;&lt;b style=&quot;font-size: 35px;&quot;&gt;co.autenticacionbiometricaapirest.&lt;/b&gt;&lt;span style=&quot;font-size: 35px;&quot;&gt;&lt;b style=&quot;font-size: 35px;&quot;&gt;pilotoautenticacionbiometrica&lt;/b&gt;&lt;/span&gt;&lt;/font&gt;" style="text;html=1;strokeColor=none;fillColor=none;align=center;verticalAlign=middle;whiteSpace=wrap;rounded=0;fontSize=35;" vertex="1" parent="1">
          <mxGeometry x="-66.25" y="2990" width="1226.25" height="20" as="geometry" />
        </mxCell>
        <mxCell id="8vD22_smCyKk7x_BGVz0-336" value="" style="shape=folder;tabWidth=445;tabHeight=40;tabPosition=left;strokeWidth=2;html=1;whiteSpace=wrap;align=center;" vertex="1" parent="1">
          <mxGeometry x="15" y="3320" width="825" height="300" as="geometry" />
        </mxCell>
        <mxCell id="8vD22_smCyKk7x_BGVz0-337" value="&lt;b style=&quot;font-size: 35px;&quot;&gt;&lt;font style=&quot;font-size: 35px;&quot;&gt;controller&lt;/font&gt;&lt;/b&gt;" style="text;html=1;strokeColor=none;fillColor=none;align=center;verticalAlign=middle;whiteSpace=wrap;rounded=0;fontSize=35;" vertex="1" parent="1">
          <mxGeometry x="43.5" y="3330" width="125" height="20" as="geometry" />
        </mxCell>
        <mxCell id="8vD22_smCyKk7x_BGVz0-338" value="" style="shape=folder;tabWidth=443;tabHeight=50;tabPosition=left;strokeWidth=2;html=1;whiteSpace=wrap;align=center;" vertex="1" parent="1">
          <mxGeometry x="17.5" y="3680" width="822.5" height="360" as="geometry" />
        </mxCell>
        <mxCell id="8vD22_smCyKk7x_BGVz0-339" value="&lt;b style=&quot;font-size: 35px;&quot;&gt;&lt;font style=&quot;font-size: 35px;&quot;&gt;model&lt;/font&gt;&lt;/b&gt;" style="text;html=1;strokeColor=none;fillColor=none;align=center;verticalAlign=middle;whiteSpace=wrap;rounded=0;fontSize=35;" vertex="1" parent="1">
          <mxGeometry x="42.5" y="3690" width="82.5" height="20" as="geometry" />
        </mxCell>
        <mxCell id="8vD22_smCyKk7x_BGVz0-340" value="" style="shape=folder;tabWidth=509;tabHeight=50;tabPosition=left;strokeWidth=2;html=1;whiteSpace=wrap;align=center;" vertex="1" parent="1">
          <mxGeometry x="911.25" y="3320" width="858.75" height="305" as="geometry" />
        </mxCell>
        <mxCell id="8vD22_smCyKk7x_BGVz0-341" value="&lt;b style=&quot;font-size: 35px;&quot;&gt;&lt;font style=&quot;font-size: 35px;&quot;&gt;service&lt;/font&gt;&lt;/b&gt;" style="text;html=1;strokeColor=none;fillColor=none;align=center;verticalAlign=middle;whiteSpace=wrap;rounded=0;fontSize=35;" vertex="1" parent="1">
          <mxGeometry x="935" y="3330" width="85" height="20" as="geometry" />
        </mxCell>
        <mxCell id="8vD22_smCyKk7x_BGVz0-342" value="" style="shape=folder;tabWidth=510;tabHeight=50;tabPosition=left;strokeWidth=2;html=1;whiteSpace=wrap;align=center;" vertex="1" parent="1">
          <mxGeometry x="910" y="3680" width="860" height="360" as="geometry" />
        </mxCell>
        <mxCell id="8vD22_smCyKk7x_BGVz0-343" value="&lt;b style=&quot;font-size: 35px;&quot;&gt;&lt;font style=&quot;font-size: 35px;&quot;&gt;dao&lt;/font&gt;&lt;/b&gt;" style="text;html=1;strokeColor=none;fillColor=none;align=center;verticalAlign=middle;whiteSpace=wrap;rounded=0;fontSize=35;" vertex="1" parent="1">
          <mxGeometry x="917.5" y="3700" width="90" height="20" as="geometry" />
        </mxCell>
        <mxCell id="8vD22_smCyKk7x_BGVz0-344" value="UsuarioController&#xa;&lt;&lt;class&gt;&gt;" style="swimlane;fontStyle=1;align=center;verticalAlign=top;childLayout=stackLayout;horizontal=1;startSize=47;horizontalStack=0;resizeParent=1;resizeParentMax=0;resizeLast=0;collapsible=1;marginBottom=0;" vertex="1" parent="1">
          <mxGeometry x="67.5" y="3417.5" width="295" height="160" as="geometry" />
        </mxCell>
        <mxCell id="8vD22_smCyKk7x_BGVz0-345" value="- UsuarioService usuarioService" style="text;strokeColor=none;fillColor=none;align=left;verticalAlign=top;spacingLeft=4;spacingRight=4;overflow=hidden;rotatable=0;points=[[0,0.5],[1,0.5]];portConstraint=eastwest;" vertex="1" parent="8vD22_smCyKk7x_BGVz0-344">
          <mxGeometry y="47" width="295" height="23" as="geometry" />
        </mxCell>
        <mxCell id="8vD22_smCyKk7x_BGVz0-346" value="" style="line;strokeWidth=1;fillColor=none;align=left;verticalAlign=middle;spacingTop=-1;spacingLeft=3;spacingRight=3;rotatable=0;labelPosition=right;points=[];portConstraint=eastwest;" vertex="1" parent="8vD22_smCyKk7x_BGVz0-344">
          <mxGeometry y="70" width="295" height="43" as="geometry" />
        </mxCell>
        <mxCell id="8vD22_smCyKk7x_BGVz0-347" value="+ UsuarioResponse crearUsuario(UsuarioRequest)&#xa;+ UsuarioResponse editarUsuario(UsuarioRequest)" style="text;strokeColor=none;fillColor=none;align=left;verticalAlign=top;spacingLeft=4;spacingRight=4;overflow=hidden;rotatable=0;points=[[0,0.5],[1,0.5]];portConstraint=eastwest;" vertex="1" parent="8vD22_smCyKk7x_BGVz0-344">
          <mxGeometry y="113" width="295" height="47" as="geometry" />
        </mxCell>
        <mxCell id="8vD22_smCyKk7x_BGVz0-348" value="UsuarioService&#xa;&lt;interface&gt;" style="swimlane;fontStyle=1;align=center;verticalAlign=top;childLayout=stackLayout;horizontal=1;startSize=45;horizontalStack=0;resizeParent=1;resizeParentMax=0;resizeLast=0;collapsible=1;marginBottom=0;fillColor=#67AB9F;" vertex="1" parent="1">
          <mxGeometry x="501" y="3426.5" width="160" height="60" as="geometry" />
        </mxCell>
        <mxCell id="8vD22_smCyKk7x_BGVz0-349" value="Extends" style="endArrow=block;endSize=16;endFill=0;html=1;entryX=0;entryY=0.25;entryDx=0;entryDy=0;exitX=1.017;exitY=0.267;exitDx=0;exitDy=0;exitPerimeter=0;startArrow=none;" edge="1" parent="1" source="8vD22_smCyKk7x_BGVz0-364" target="8vD22_smCyKk7x_BGVz0-402">
          <mxGeometry width="160" relative="1" as="geometry">
            <mxPoint x="210.55999999999995" y="3810.282" as="sourcePoint" />
            <mxPoint x="322.5" y="3790" as="targetPoint" />
          </mxGeometry>
        </mxCell>
        <mxCell id="8vD22_smCyKk7x_BGVz0-350" value="UsuarioServiceImpl&#xa;&lt;&lt;class&gt;&gt;" style="swimlane;fontStyle=1;align=center;verticalAlign=top;childLayout=stackLayout;horizontal=1;startSize=36;horizontalStack=0;resizeParent=1;resizeParentMax=0;resizeLast=0;collapsible=1;marginBottom=0;fillColor=#FFFFFF;" vertex="1" parent="1">
          <mxGeometry x="932.25" y="3427.5" width="298" height="98" as="geometry" />
        </mxCell>
        <mxCell id="8vD22_smCyKk7x_BGVz0-351" value="- UsuarioService usuarioService&#xa;- UsuarioServiceDAO usuarioServiceDAO" style="text;strokeColor=none;fillColor=none;align=left;verticalAlign=top;spacingLeft=4;spacingRight=4;overflow=hidden;rotatable=0;points=[[0,0.5],[1,0.5]];portConstraint=eastwest;" vertex="1" parent="8vD22_smCyKk7x_BGVz0-350">
          <mxGeometry y="36" width="298" height="54" as="geometry" />
        </mxCell>
        <mxCell id="8vD22_smCyKk7x_BGVz0-352" value="" style="line;strokeWidth=1;fillColor=none;align=left;verticalAlign=middle;spacingTop=-1;spacingLeft=3;spacingRight=3;rotatable=0;labelPosition=right;points=[];portConstraint=eastwest;" vertex="1" parent="8vD22_smCyKk7x_BGVz0-350">
          <mxGeometry y="90" width="298" height="8" as="geometry" />
        </mxCell>
        <mxCell id="8vD22_smCyKk7x_BGVz0-353" value="UsuarioServiceDAO&#xa;&lt;&lt;interface&gt;&gt;" style="swimlane;fontStyle=1;align=center;verticalAlign=top;childLayout=stackLayout;horizontal=1;startSize=41;horizontalStack=0;resizeParent=1;resizeParentMax=0;resizeLast=0;collapsible=1;marginBottom=0;fillColor=#FFFFFF;" vertex="1" parent="1">
          <mxGeometry x="950.5" y="3814" width="258" height="91" as="geometry" />
        </mxCell>
        <mxCell id="8vD22_smCyKk7x_BGVz0-354" value="" style="line;strokeWidth=1;fillColor=none;align=left;verticalAlign=middle;spacingTop=-1;spacingLeft=3;spacingRight=3;rotatable=0;labelPosition=right;points=[];portConstraint=eastwest;" vertex="1" parent="8vD22_smCyKk7x_BGVz0-353">
          <mxGeometry y="41" width="258" height="8" as="geometry" />
        </mxCell>
        <mxCell id="8vD22_smCyKk7x_BGVz0-355" value="+ Usuario crearUsuario(Usuario)&#xa;+ Usuario actualizarUsuario(Usuario)" style="text;strokeColor=none;fillColor=none;align=left;verticalAlign=top;spacingLeft=4;spacingRight=4;overflow=hidden;rotatable=0;points=[[0,0.5],[1,0.5]];portConstraint=eastwest;" vertex="1" parent="8vD22_smCyKk7x_BGVz0-353">
          <mxGeometry y="49" width="258" height="42" as="geometry" />
        </mxCell>
        <mxCell id="8vD22_smCyKk7x_BGVz0-356" value="JPARepository&lt;Usuario&gt;&#xa;&lt;&lt;interface&gt;&gt;" style="swimlane;fontStyle=1;align=center;verticalAlign=top;childLayout=stackLayout;horizontal=1;startSize=40;horizontalStack=0;resizeParent=1;resizeParentMax=0;resizeLast=0;collapsible=1;marginBottom=0;fillColor=#67AB9F;" vertex="1" parent="1">
          <mxGeometry x="1323" y="3814" width="265" height="70.5" as="geometry" />
        </mxCell>
        <mxCell id="8vD22_smCyKk7x_BGVz0-357" value="&lt;span style=&quot;font-size: 35px;&quot;&gt;&lt;b style=&quot;font-size: 35px;&quot;&gt;administracion.usuario&lt;/b&gt;&lt;/span&gt;" style="text;html=1;strokeColor=none;fillColor=none;align=center;verticalAlign=middle;whiteSpace=wrap;rounded=0;fontSize=35;" vertex="1" parent="1">
          <mxGeometry x="32.5" y="3210" width="322.5" height="20" as="geometry" />
        </mxCell>
        <mxCell id="8vD22_smCyKk7x_BGVz0-358" value="" style="endArrow=block;dashed=1;endFill=0;endSize=12;html=1;exitX=1.01;exitY=0.31;exitDx=0;exitDy=0;entryX=0;entryY=0.5;entryDx=0;entryDy=0;exitPerimeter=0;" edge="1" parent="1" source="8vD22_smCyKk7x_BGVz0-351" target="8vD22_smCyKk7x_BGVz0-360">
          <mxGeometry width="160" relative="1" as="geometry">
            <mxPoint x="1331.25" y="3520" as="sourcePoint" />
            <mxPoint x="1321.25" y="3490" as="targetPoint" />
          </mxGeometry>
        </mxCell>
        <mxCell id="8vD22_smCyKk7x_BGVz0-359" value="UsuarioService&#xa;&lt;&lt;interface&gt;&gt;" style="swimlane;fontStyle=1;align=center;verticalAlign=top;childLayout=stackLayout;horizontal=1;startSize=36;horizontalStack=0;resizeParent=1;resizeParentMax=0;resizeLast=0;collapsible=1;marginBottom=0;fillColor=#FFFFFF;" vertex="1" parent="1">
          <mxGeometry x="1296.25" y="3427.5" width="325" height="150" as="geometry" />
        </mxCell>
        <mxCell id="8vD22_smCyKk7x_BGVz0-360" value="- UsuarioServiceDAO chanceService" style="text;strokeColor=none;fillColor=none;align=left;verticalAlign=top;spacingLeft=4;spacingRight=4;overflow=hidden;rotatable=0;points=[[0,0.5],[1,0.5]];portConstraint=eastwest;" vertex="1" parent="8vD22_smCyKk7x_BGVz0-359">
          <mxGeometry y="36" width="325" height="26" as="geometry" />
        </mxCell>
        <mxCell id="8vD22_smCyKk7x_BGVz0-361" value="" style="line;strokeWidth=1;fillColor=none;align=left;verticalAlign=middle;spacingTop=-1;spacingLeft=3;spacingRight=3;rotatable=0;labelPosition=right;points=[];portConstraint=eastwest;" vertex="1" parent="8vD22_smCyKk7x_BGVz0-359">
          <mxGeometry y="62" width="325" height="8" as="geometry" />
        </mxCell>
        <mxCell id="8vD22_smCyKk7x_BGVz0-362" value="+ UsuarioResponse crearUsuario(UsuarioRequest)&#xa;+ UsuarioResponse actualizarUsuario(UsuarioRequest)" style="text;strokeColor=none;fillColor=none;align=left;verticalAlign=top;spacingLeft=4;spacingRight=4;overflow=hidden;rotatable=0;points=[[0,0.5],[1,0.5]];portConstraint=eastwest;" vertex="1" parent="8vD22_smCyKk7x_BGVz0-359">
          <mxGeometry y="70" width="325" height="80" as="geometry" />
        </mxCell>
        <mxCell id="8vD22_smCyKk7x_BGVz0-363" value="" style="endArrow=block;dashed=1;endFill=0;endSize=12;html=1;exitX=1.008;exitY=0.378;exitDx=0;exitDy=0;entryX=0;entryY=0.5;entryDx=0;entryDy=0;exitPerimeter=0;" edge="1" parent="1" source="8vD22_smCyKk7x_BGVz0-353" target="8vD22_smCyKk7x_BGVz0-356">
          <mxGeometry width="160" relative="1" as="geometry">
            <mxPoint x="1200.5" y="3875" as="sourcePoint" />
            <mxPoint x="1315.5" y="3841.88" as="targetPoint" />
          </mxGeometry>
        </mxCell>
        <mxCell id="8vD22_smCyKk7x_BGVz0-364" value="Usuario&#xa;&lt;&lt;class&gt;&gt;" style="swimlane;fontStyle=1;align=center;verticalAlign=top;childLayout=stackLayout;horizontal=1;startSize=41;horizontalStack=0;resizeParent=1;resizeParentMax=0;resizeLast=0;collapsible=1;marginBottom=0;fillColor=#FFFFFF;" vertex="1" parent="1">
          <mxGeometry x="27.5" y="3754.75" width="295" height="180" as="geometry" />
        </mxCell>
        <mxCell id="8vD22_smCyKk7x_BGVz0-365" value="- usuario: String&#xa;- clave: String&#xa;- nombre: String&#xa;- apellidos: String&#xa;- identificacion: String&#xa;- idPerfil: BigInteger" style="text;strokeColor=none;fillColor=none;align=left;verticalAlign=top;spacingLeft=4;spacingRight=4;overflow=hidden;rotatable=0;points=[[0,0.5],[1,0.5]];portConstraint=eastwest;" vertex="1" parent="8vD22_smCyKk7x_BGVz0-364">
          <mxGeometry y="41" width="295" height="89" as="geometry" />
        </mxCell>
        <mxCell id="8vD22_smCyKk7x_BGVz0-366" value="" style="line;strokeWidth=1;fillColor=none;align=left;verticalAlign=middle;spacingTop=-1;spacingLeft=3;spacingRight=3;rotatable=0;labelPosition=right;points=[];portConstraint=eastwest;" vertex="1" parent="8vD22_smCyKk7x_BGVz0-364">
          <mxGeometry y="130" width="295" height="8" as="geometry" />
        </mxCell>
        <mxCell id="8vD22_smCyKk7x_BGVz0-367" value="+ getters()&#xa;+ setter()" style="text;strokeColor=none;fillColor=none;align=left;verticalAlign=top;spacingLeft=4;spacingRight=4;overflow=hidden;rotatable=0;points=[[0,0.5],[1,0.5]];portConstraint=eastwest;" vertex="1" parent="8vD22_smCyKk7x_BGVz0-364">
          <mxGeometry y="138" width="295" height="42" as="geometry" />
        </mxCell>
        <mxCell id="8vD22_smCyKk7x_BGVz0-368" value="" style="shape=folder;tabWidth=900;tabHeight=60;tabPosition=left;strokeWidth=2;html=1;whiteSpace=wrap;align=center;" vertex="1" parent="1">
          <mxGeometry x="-20" y="4940" width="1870" height="1230" as="geometry" />
        </mxCell>
        <mxCell id="8vD22_smCyKk7x_BGVz0-369" value="" style="shape=folder;tabWidth=465;tabHeight=50;tabPosition=left;strokeWidth=2;html=1;whiteSpace=wrap;align=center;" vertex="1" parent="1">
          <mxGeometry x="5" y="5130" width="805" height="330" as="geometry" />
        </mxCell>
        <mxCell id="8vD22_smCyKk7x_BGVz0-370" value="&lt;b style=&quot;font-size: 35px;&quot;&gt;&lt;font style=&quot;font-size: 35px;&quot;&gt;controller&lt;/font&gt;&lt;/b&gt;" style="text;html=1;strokeColor=none;fillColor=none;align=center;verticalAlign=middle;whiteSpace=wrap;rounded=0;fontSize=35;" vertex="1" parent="1">
          <mxGeometry x="75" y="5140" width="40" height="20" as="geometry" />
        </mxCell>
        <mxCell id="8vD22_smCyKk7x_BGVz0-371" value="" style="shape=folder;tabWidth=465;tabHeight=45;tabPosition=left;strokeWidth=2;html=1;whiteSpace=wrap;align=center;" vertex="1" parent="1">
          <mxGeometry x="5" y="5515" width="805" height="285" as="geometry" />
        </mxCell>
        <mxCell id="8vD22_smCyKk7x_BGVz0-372" value="&lt;b style=&quot;font-size: 35px;&quot;&gt;&lt;font style=&quot;font-size: 35px;&quot;&gt;model&lt;/font&gt;&lt;/b&gt;" style="text;html=1;strokeColor=none;fillColor=none;align=center;verticalAlign=middle;whiteSpace=wrap;rounded=0;fontSize=35;" vertex="1" parent="1">
          <mxGeometry x="15" y="5530" width="125" height="20" as="geometry" />
        </mxCell>
        <mxCell id="8vD22_smCyKk7x_BGVz0-373" value="" style="shape=folder;tabWidth=460;tabHeight=50;tabPosition=left;strokeWidth=2;html=1;whiteSpace=wrap;align=center;" vertex="1" parent="1">
          <mxGeometry x="910" y="5130" width="870" height="330" as="geometry" />
        </mxCell>
        <mxCell id="8vD22_smCyKk7x_BGVz0-374" value="&lt;b style=&quot;font-size: 35px;&quot;&gt;&lt;font style=&quot;font-size: 35px;&quot;&gt;service&lt;/font&gt;&lt;/b&gt;" style="text;html=1;strokeColor=none;fillColor=none;align=center;verticalAlign=middle;whiteSpace=wrap;rounded=0;fontSize=35;" vertex="1" parent="1">
          <mxGeometry x="942.5" y="5150" width="117.5" height="20" as="geometry" />
        </mxCell>
        <mxCell id="8vD22_smCyKk7x_BGVz0-375" value="" style="shape=folder;tabWidth=470;tabHeight=35;tabPosition=left;strokeWidth=2;html=1;whiteSpace=wrap;align=center;" vertex="1" parent="1">
          <mxGeometry x="910" y="5515" width="870" height="280" as="geometry" />
        </mxCell>
        <mxCell id="8vD22_smCyKk7x_BGVz0-376" value="&lt;b style=&quot;font-size: 35px;&quot;&gt;&lt;font style=&quot;font-size: 35px;&quot;&gt;dao&lt;/font&gt;&lt;/b&gt;" style="text;html=1;strokeColor=none;fillColor=none;align=center;verticalAlign=middle;whiteSpace=wrap;rounded=0;fontSize=35;" vertex="1" parent="1">
          <mxGeometry x="942.5" y="5521" width="40" height="20" as="geometry" />
        </mxCell>
        <mxCell id="8vD22_smCyKk7x_BGVz0-377" value="Extends" style="endArrow=block;endSize=16;endFill=0;html=1;entryX=0;entryY=0.5;entryDx=0;entryDy=0;exitX=1.017;exitY=0.267;exitDx=0;exitDy=0;exitPerimeter=0;startArrow=none;" edge="1" parent="1" source="8vD22_smCyKk7x_BGVz0-393" target="8vD22_smCyKk7x_BGVz0-378">
          <mxGeometry width="160" relative="1" as="geometry">
            <mxPoint x="198.05999999999995" y="5660.282" as="sourcePoint" />
            <mxPoint x="326" y="5631.5" as="targetPoint" />
          </mxGeometry>
        </mxCell>
        <mxCell id="8vD22_smCyKk7x_BGVz0-378" value="EntidadGeneral&#xa;&lt;&lt;class&gt;&gt;" style="swimlane;fontStyle=1;align=center;verticalAlign=top;childLayout=stackLayout;horizontal=1;startSize=43;horizontalStack=0;resizeParent=1;resizeParentMax=0;resizeLast=0;collapsible=1;marginBottom=0;fillColor=#67AB9F;" vertex="1" parent="1">
          <mxGeometry x="437.5" y="5621.75" width="160" height="62.5" as="geometry" />
        </mxCell>
        <mxCell id="8vD22_smCyKk7x_BGVz0-379" value="RegistroServiceImpl&#xa;&lt;&lt;class&gt;&gt;" style="swimlane;fontStyle=1;align=center;verticalAlign=top;childLayout=stackLayout;horizontal=1;startSize=36;horizontalStack=0;resizeParent=1;resizeParentMax=0;resizeLast=0;collapsible=1;marginBottom=0;fillColor=#FFFFFF;" vertex="1" parent="1">
          <mxGeometry x="960" y="5268" width="290" height="98" as="geometry" />
        </mxCell>
        <mxCell id="8vD22_smCyKk7x_BGVz0-380" value="- RegistroService registroService&#xa;- RegistroServiceDAO registroServiceDAO" style="text;strokeColor=none;fillColor=none;align=left;verticalAlign=top;spacingLeft=4;spacingRight=4;overflow=hidden;rotatable=0;points=[[0,0.5],[1,0.5]];portConstraint=eastwest;" vertex="1" parent="8vD22_smCyKk7x_BGVz0-379">
          <mxGeometry y="36" width="290" height="54" as="geometry" />
        </mxCell>
        <mxCell id="8vD22_smCyKk7x_BGVz0-381" value="" style="line;strokeWidth=1;fillColor=none;align=left;verticalAlign=middle;spacingTop=-1;spacingLeft=3;spacingRight=3;rotatable=0;labelPosition=right;points=[];portConstraint=eastwest;" vertex="1" parent="8vD22_smCyKk7x_BGVz0-379">
          <mxGeometry y="90" width="290" height="8" as="geometry" />
        </mxCell>
        <mxCell id="8vD22_smCyKk7x_BGVz0-382" value="RegistroServiceDAO&#xa;&lt;&lt;interface&gt;&gt;" style="swimlane;fontStyle=1;align=center;verticalAlign=top;childLayout=stackLayout;horizontal=1;startSize=41;horizontalStack=0;resizeParent=1;resizeParentMax=0;resizeLast=0;collapsible=1;marginBottom=0;fillColor=#FFFFFF;" vertex="1" parent="1">
          <mxGeometry x="960" y="5564" width="390" height="91" as="geometry" />
        </mxCell>
        <mxCell id="8vD22_smCyKk7x_BGVz0-383" value="" style="line;strokeWidth=1;fillColor=none;align=left;verticalAlign=middle;spacingTop=-1;spacingLeft=3;spacingRight=3;rotatable=0;labelPosition=right;points=[];portConstraint=eastwest;" vertex="1" parent="8vD22_smCyKk7x_BGVz0-382">
          <mxGeometry y="41" width="390" height="8" as="geometry" />
        </mxCell>
        <mxCell id="8vD22_smCyKk7x_BGVz0-384" value="+ UserInfoBiometric almacenarDatosBiometricos(UserInfoBiometric )&#xa;+ UserInfoBiometric actualizarDatosBiometricos(UserInfoBiometric )" style="text;strokeColor=none;fillColor=none;align=left;verticalAlign=top;spacingLeft=4;spacingRight=4;overflow=hidden;rotatable=0;points=[[0,0.5],[1,0.5]];portConstraint=eastwest;" vertex="1" parent="8vD22_smCyKk7x_BGVz0-382">
          <mxGeometry y="49" width="390" height="42" as="geometry" />
        </mxCell>
        <mxCell id="8vD22_smCyKk7x_BGVz0-385" value="JPARepository&lt;UserInfoBiometric&gt;&#xa;&lt;&lt;interface&gt;&gt;" style="swimlane;fontStyle=1;align=center;verticalAlign=top;childLayout=stackLayout;horizontal=1;startSize=40;horizontalStack=0;resizeParent=1;resizeParentMax=0;resizeLast=0;collapsible=1;marginBottom=0;fillColor=#67AB9F;" vertex="1" parent="1">
          <mxGeometry x="1412.5" y="5564" width="250" height="70.5" as="geometry" />
        </mxCell>
        <mxCell id="8vD22_smCyKk7x_BGVz0-386" value="&lt;span style=&quot;font-size: 35px;&quot;&gt;&lt;b style=&quot;font-size: 35px;&quot;&gt;autenticacion.registro&lt;/b&gt;&lt;/span&gt;" style="text;html=1;strokeColor=none;fillColor=none;align=center;verticalAlign=middle;whiteSpace=wrap;rounded=0;fontSize=35;" vertex="1" parent="1">
          <mxGeometry x="2.5" y="4960" width="360" height="20" as="geometry" />
        </mxCell>
        <mxCell id="8vD22_smCyKk7x_BGVz0-387" value="" style="endArrow=block;dashed=1;endFill=0;endSize=12;html=1;entryX=0;entryY=0.545;entryDx=0;entryDy=0;entryPerimeter=0;exitX=1;exitY=0.5;exitDx=0;exitDy=0;" edge="1" parent="1" source="8vD22_smCyKk7x_BGVz0-380" target="8vD22_smCyKk7x_BGVz0-390">
          <mxGeometry width="160" relative="1" as="geometry">
            <mxPoint x="1220" y="5328" as="sourcePoint" />
            <mxPoint x="1307.5" y="5327.5" as="targetPoint" />
          </mxGeometry>
        </mxCell>
        <mxCell id="8vD22_smCyKk7x_BGVz0-388" value="RegistroService&#xa;&lt;&lt;interface&gt;&gt;" style="swimlane;fontStyle=1;align=center;verticalAlign=top;childLayout=stackLayout;horizontal=1;startSize=36;horizontalStack=0;resizeParent=1;resizeParentMax=0;resizeLast=0;collapsible=1;marginBottom=0;fillColor=#FFFFFF;" vertex="1" parent="1">
          <mxGeometry x="1330" y="5262.5" width="325" height="150" as="geometry" />
        </mxCell>
        <mxCell id="8vD22_smCyKk7x_BGVz0-389" value="- ChanceService chanceService" style="text;strokeColor=none;fillColor=none;align=left;verticalAlign=top;spacingLeft=4;spacingRight=4;overflow=hidden;rotatable=0;points=[[0,0.5],[1,0.5]];portConstraint=eastwest;" vertex="1" parent="8vD22_smCyKk7x_BGVz0-388">
          <mxGeometry y="36" width="325" height="26" as="geometry" />
        </mxCell>
        <mxCell id="8vD22_smCyKk7x_BGVz0-390" value="" style="line;strokeWidth=1;fillColor=none;align=left;verticalAlign=middle;spacingTop=-1;spacingLeft=3;spacingRight=3;rotatable=0;labelPosition=right;points=[];portConstraint=eastwest;" vertex="1" parent="8vD22_smCyKk7x_BGVz0-388">
          <mxGeometry y="62" width="325" height="8" as="geometry" />
        </mxCell>
        <mxCell id="8vD22_smCyKk7x_BGVz0-391" value="+ UsuarioResponse crearUsuario(UsuarioRequest)&#xa;+ UsuarioResponse actualizarUsuario(UsuarioRequest)" style="text;strokeColor=none;fillColor=none;align=left;verticalAlign=top;spacingLeft=4;spacingRight=4;overflow=hidden;rotatable=0;points=[[0,0.5],[1,0.5]];portConstraint=eastwest;" vertex="1" parent="8vD22_smCyKk7x_BGVz0-388">
          <mxGeometry y="70" width="325" height="80" as="geometry" />
        </mxCell>
        <mxCell id="8vD22_smCyKk7x_BGVz0-392" value="" style="endArrow=block;dashed=1;endFill=0;endSize=12;html=1;exitX=1.008;exitY=0.378;exitDx=0;exitDy=0;entryX=0;entryY=0.5;entryDx=0;entryDy=0;exitPerimeter=0;" edge="1" parent="1" source="8vD22_smCyKk7x_BGVz0-382" target="8vD22_smCyKk7x_BGVz0-385">
          <mxGeometry width="160" relative="1" as="geometry">
            <mxPoint x="1327.5" y="5625" as="sourcePoint" />
            <mxPoint x="1442.5" y="5591.88" as="targetPoint" />
          </mxGeometry>
        </mxCell>
        <mxCell id="8vD22_smCyKk7x_BGVz0-393" value="UserInfoBiometric&#xa;&lt;&lt;class&gt;&gt;" style="swimlane;fontStyle=1;align=center;verticalAlign=top;childLayout=stackLayout;horizontal=1;startSize=45;horizontalStack=0;resizeParent=1;resizeParentMax=0;resizeLast=0;collapsible=1;marginBottom=0;fillColor=#FFFFFF;" vertex="1" parent="1">
          <mxGeometry x="15" y="5604.75" width="322.5" height="180" as="geometry" />
        </mxCell>
        <mxCell id="8vD22_smCyKk7x_BGVz0-394" value="- idUsuario: String&#xa;- faceId: String&#xa;- externalId: String&#xa;- rutaBucketS3: String&#xa;- nombreArchivo: String" style="text;strokeColor=none;fillColor=none;align=left;verticalAlign=top;spacingLeft=4;spacingRight=4;overflow=hidden;rotatable=0;points=[[0,0.5],[1,0.5]];portConstraint=eastwest;" vertex="1" parent="8vD22_smCyKk7x_BGVz0-393">
          <mxGeometry y="45" width="322.5" height="85" as="geometry" />
        </mxCell>
        <mxCell id="8vD22_smCyKk7x_BGVz0-395" value="" style="line;strokeWidth=1;fillColor=none;align=left;verticalAlign=middle;spacingTop=-1;spacingLeft=3;spacingRight=3;rotatable=0;labelPosition=right;points=[];portConstraint=eastwest;" vertex="1" parent="8vD22_smCyKk7x_BGVz0-393">
          <mxGeometry y="130" width="322.5" height="8" as="geometry" />
        </mxCell>
        <mxCell id="8vD22_smCyKk7x_BGVz0-396" value="+ getters()&#xa;+ setter()" style="text;strokeColor=none;fillColor=none;align=left;verticalAlign=top;spacingLeft=4;spacingRight=4;overflow=hidden;rotatable=0;points=[[0,0.5],[1,0.5]];portConstraint=eastwest;" vertex="1" parent="8vD22_smCyKk7x_BGVz0-393">
          <mxGeometry y="138" width="322.5" height="42" as="geometry" />
        </mxCell>
        <mxCell id="8vD22_smCyKk7x_BGVz0-397" value="" style="endArrow=block;dashed=1;endFill=0;endSize=12;html=1;exitX=1;exitY=0.25;exitDx=0;exitDy=0;entryX=0;entryY=0.5;entryDx=0;entryDy=0;" edge="1" parent="1" source="8vD22_smCyKk7x_BGVz0-344" target="8vD22_smCyKk7x_BGVz0-348">
          <mxGeometry width="160" relative="1" as="geometry">
            <mxPoint x="1092.5" y="3467.75" as="sourcePoint" />
            <mxPoint x="322.5" y="3460.5" as="targetPoint" />
          </mxGeometry>
        </mxCell>
        <mxCell id="8vD22_smCyKk7x_BGVz0-398" value="RegistroService&#xa;&lt;&lt;interface&gt;&gt;" style="swimlane;fontStyle=1;align=center;verticalAlign=top;childLayout=stackLayout;horizontal=1;startSize=40;horizontalStack=0;resizeParent=1;resizeParentMax=0;resizeLast=0;collapsible=1;marginBottom=0;fillColor=#67AB9F;" vertex="1" parent="1">
          <mxGeometry x="447.5" y="5229.75" width="160" height="102.5" as="geometry" />
        </mxCell>
        <mxCell id="8vD22_smCyKk7x_BGVz0-399" value="" style="endArrow=block;dashed=1;endFill=0;endSize=12;html=1;entryX=0.001;entryY=0.361;entryDx=0;entryDy=0;exitX=1;exitY=0.5;exitDx=0;exitDy=0;entryPerimeter=0;startArrow=none;" edge="1" parent="1" source="8vD22_smCyKk7x_BGVz0-432" target="8vD22_smCyKk7x_BGVz0-398">
          <mxGeometry width="160" relative="1" as="geometry">
            <mxPoint x="237.5" y="5262.5" as="sourcePoint" />
            <mxPoint x="298.72" y="5264" as="targetPoint" />
          </mxGeometry>
        </mxCell>
        <mxCell id="8vD22_smCyKk7x_BGVz0-400" value="" style="endArrow=block;dashed=1;endFill=0;endSize=12;html=1;exitX=0.5;exitY=1;exitDx=0;exitDy=0;entryX=0.5;entryY=0;entryDx=0;entryDy=0;" edge="1" parent="1" source="8vD22_smCyKk7x_BGVz0-350" target="8vD22_smCyKk7x_BGVz0-353">
          <mxGeometry width="160" relative="1" as="geometry">
            <mxPoint x="1225.6999999999998" y="3486.99" as="sourcePoint" />
            <mxPoint x="1081.25" y="3730" as="targetPoint" />
          </mxGeometry>
        </mxCell>
        <mxCell id="8vD22_smCyKk7x_BGVz0-401" value="" style="endArrow=block;dashed=1;endFill=0;endSize=12;html=1;exitX=0.5;exitY=1;exitDx=0;exitDy=0;entryX=0.367;entryY=0.006;entryDx=0;entryDy=0;entryPerimeter=0;" edge="1" parent="1" source="8vD22_smCyKk7x_BGVz0-379" target="8vD22_smCyKk7x_BGVz0-382">
          <mxGeometry width="160" relative="1" as="geometry">
            <mxPoint x="1232.5" y="5332.25" as="sourcePoint" />
            <mxPoint x="1317.5" y="5321.5" as="targetPoint" />
          </mxGeometry>
        </mxCell>
        <mxCell id="8vD22_smCyKk7x_BGVz0-402" value="EntidadGeneral&#xa;&lt;&lt;class&gt;&gt;" style="swimlane;fontStyle=1;align=center;verticalAlign=top;childLayout=stackLayout;horizontal=1;startSize=43;horizontalStack=0;resizeParent=1;resizeParentMax=0;resizeLast=0;collapsible=1;marginBottom=0;fillColor=#67AB9F;" vertex="1" parent="1">
          <mxGeometry x="461" y="3786.25" width="160" height="62.5" as="geometry" />
        </mxCell>
        <mxCell id="8vD22_smCyKk7x_BGVz0-403" value="" style="shape=folder;tabWidth=950;tabHeight=50;tabPosition=left;strokeWidth=2;html=1;whiteSpace=wrap;align=center;" vertex="1" parent="1">
          <mxGeometry x="-20" y="6230" width="1870" height="790" as="geometry" />
        </mxCell>
        <mxCell id="8vD22_smCyKk7x_BGVz0-404" value="" style="shape=folder;tabWidth=403;tabHeight=40;tabPosition=left;strokeWidth=2;html=1;whiteSpace=wrap;align=center;" vertex="1" parent="1">
          <mxGeometry x="-2.5" y="6320" width="762.5" height="270" as="geometry" />
        </mxCell>
        <mxCell id="8vD22_smCyKk7x_BGVz0-405" value="&lt;b style=&quot;font-size: 35px;&quot;&gt;&lt;font style=&quot;font-size: 35px;&quot;&gt;controller&lt;/font&gt;&lt;/b&gt;" style="text;html=1;strokeColor=none;fillColor=none;align=center;verticalAlign=middle;whiteSpace=wrap;rounded=0;fontSize=35;" vertex="1" parent="1">
          <mxGeometry x="17.5" y="6325" width="162.5" height="20" as="geometry" />
        </mxCell>
        <mxCell id="8vD22_smCyKk7x_BGVz0-406" value="" style="shape=folder;tabWidth=403;tabHeight=40;tabPosition=left;strokeWidth=2;html=1;whiteSpace=wrap;align=center;" vertex="1" parent="1">
          <mxGeometry x="-2.5" y="6620" width="762.5" height="370" as="geometry" />
        </mxCell>
        <mxCell id="8vD22_smCyKk7x_BGVz0-407" value="&lt;b style=&quot;font-size: 35px;&quot;&gt;&lt;font style=&quot;font-size: 35px;&quot;&gt;model&lt;/font&gt;&lt;/b&gt;" style="text;html=1;strokeColor=none;fillColor=none;align=center;verticalAlign=middle;whiteSpace=wrap;rounded=0;fontSize=35;" vertex="1" parent="1">
          <mxGeometry x="27.5" y="6629" width="112.5" height="20" as="geometry" />
        </mxCell>
        <mxCell id="8vD22_smCyKk7x_BGVz0-408" value="" style="shape=folder;tabWidth=470;tabHeight=35;tabPosition=left;strokeWidth=2;html=1;whiteSpace=wrap;align=center;" vertex="1" parent="1">
          <mxGeometry x="910" y="6325" width="880" height="265" as="geometry" />
        </mxCell>
        <mxCell id="8vD22_smCyKk7x_BGVz0-409" value="&lt;b style=&quot;font-size: 35px;&quot;&gt;&lt;font style=&quot;font-size: 35px;&quot;&gt;service&lt;/font&gt;&lt;/b&gt;" style="text;html=1;strokeColor=none;fillColor=none;align=center;verticalAlign=middle;whiteSpace=wrap;rounded=0;fontSize=35;" vertex="1" parent="1">
          <mxGeometry x="963.75" y="6325" width="40" height="20" as="geometry" />
        </mxCell>
        <mxCell id="8vD22_smCyKk7x_BGVz0-410" value="AutenticacionController&#xa;&lt;&lt;class&gt;&gt;" style="swimlane;fontStyle=1;align=center;verticalAlign=top;childLayout=stackLayout;horizontal=1;startSize=47;horizontalStack=0;resizeParent=1;resizeParentMax=0;resizeLast=0;collapsible=1;marginBottom=0;" vertex="1" parent="1">
          <mxGeometry x="7.5" y="6373" width="330" height="141" as="geometry" />
        </mxCell>
        <mxCell id="8vD22_smCyKk7x_BGVz0-411" value="" style="line;strokeWidth=1;fillColor=none;align=left;verticalAlign=middle;spacingTop=-1;spacingLeft=3;spacingRight=3;rotatable=0;labelPosition=right;points=[];portConstraint=eastwest;" vertex="1" parent="8vD22_smCyKk7x_BGVz0-410">
          <mxGeometry y="47" width="330" height="8" as="geometry" />
        </mxCell>
        <mxCell id="8vD22_smCyKk7x_BGVz0-412" value="+AutenticacionBiometriaRequestResponse &#xa;autenticacionBiometrica (AutenticacionBiometriaRequest)" style="text;strokeColor=none;fillColor=none;align=left;verticalAlign=top;spacingLeft=4;spacingRight=4;overflow=hidden;rotatable=0;points=[[0,0.5],[1,0.5]];portConstraint=eastwest;" vertex="1" parent="8vD22_smCyKk7x_BGVz0-410">
          <mxGeometry y="55" width="330" height="86" as="geometry" />
        </mxCell>
        <mxCell id="8vD22_smCyKk7x_BGVz0-413" value="Extends" style="endArrow=block;endSize=16;endFill=0;html=1;entryX=0;entryY=0.5;entryDx=0;entryDy=0;exitX=1.017;exitY=0.267;exitDx=0;exitDy=0;exitPerimeter=0;startArrow=none;" edge="1" parent="1" source="8vD22_smCyKk7x_BGVz0-423" target="8vD22_smCyKk7x_BGVz0-414">
          <mxGeometry width="160" relative="1" as="geometry">
            <mxPoint x="190.55999999999995" y="6750.282" as="sourcePoint" />
            <mxPoint x="318.5" y="6721.5" as="targetPoint" />
          </mxGeometry>
        </mxCell>
        <mxCell id="8vD22_smCyKk7x_BGVz0-414" value="EntidadGeneral&#xa;&lt;&lt;class&gt;&gt;" style="swimlane;fontStyle=1;align=center;verticalAlign=top;childLayout=stackLayout;horizontal=1;startSize=43;horizontalStack=0;resizeParent=1;resizeParentMax=0;resizeLast=0;collapsible=1;marginBottom=0;fillColor=#67AB9F;" vertex="1" parent="1">
          <mxGeometry x="455" y="6710" width="160" height="62.5" as="geometry" />
        </mxCell>
        <mxCell id="8vD22_smCyKk7x_BGVz0-415" value="AutenticacionServiceImpl&#xa;&lt;&lt;class&gt;&gt;" style="swimlane;fontStyle=1;align=center;verticalAlign=top;childLayout=stackLayout;horizontal=1;startSize=36;horizontalStack=0;resizeParent=1;resizeParentMax=0;resizeLast=0;collapsible=1;marginBottom=0;fillColor=#FFFFFF;" vertex="1" parent="1">
          <mxGeometry x="950" y="6369.25" width="272.5" height="98" as="geometry" />
        </mxCell>
        <mxCell id="8vD22_smCyKk7x_BGVz0-416" value="- RegistroService registroService&#xa;" style="text;strokeColor=none;fillColor=none;align=left;verticalAlign=top;spacingLeft=4;spacingRight=4;overflow=hidden;rotatable=0;points=[[0,0.5],[1,0.5]];portConstraint=eastwest;" vertex="1" parent="8vD22_smCyKk7x_BGVz0-415">
          <mxGeometry y="36" width="272.5" height="54" as="geometry" />
        </mxCell>
        <mxCell id="8vD22_smCyKk7x_BGVz0-417" value="" style="line;strokeWidth=1;fillColor=none;align=left;verticalAlign=middle;spacingTop=-1;spacingLeft=3;spacingRight=3;rotatable=0;labelPosition=right;points=[];portConstraint=eastwest;" vertex="1" parent="8vD22_smCyKk7x_BGVz0-415">
          <mxGeometry y="90" width="272.5" height="8" as="geometry" />
        </mxCell>
        <mxCell id="8vD22_smCyKk7x_BGVz0-418" value="&lt;span style=&quot;font-size: 35px;&quot;&gt;&lt;b style=&quot;font-size: 35px;&quot;&gt;autenticacion.autenticacion&lt;/b&gt;&lt;/span&gt;" style="text;html=1;strokeColor=none;fillColor=none;align=center;verticalAlign=middle;whiteSpace=wrap;rounded=0;fontSize=35;" vertex="1" parent="1">
          <mxGeometry x="3.5" y="6240" width="468" height="20" as="geometry" />
        </mxCell>
        <mxCell id="8vD22_smCyKk7x_BGVz0-419" value="" style="endArrow=block;dashed=1;endFill=0;endSize=12;html=1;entryX=0;entryY=0.5;entryDx=0;entryDy=0;" edge="1" parent="1">
          <mxGeometry width="160" relative="1" as="geometry">
            <mxPoint x="1220" y="6438" as="sourcePoint" />
            <mxPoint x="1307.5" y="6437.5" as="targetPoint" />
          </mxGeometry>
        </mxCell>
        <mxCell id="8vD22_smCyKk7x_BGVz0-420" value="AutenticacionService&#xa;&lt;&lt;interface&gt;&gt;" style="swimlane;fontStyle=1;align=center;verticalAlign=top;childLayout=stackLayout;horizontal=1;startSize=36;horizontalStack=0;resizeParent=1;resizeParentMax=0;resizeLast=0;collapsible=1;marginBottom=0;fillColor=#FFFFFF;" vertex="1" parent="1">
          <mxGeometry x="1307.5" y="6372.5" width="325" height="124" as="geometry" />
        </mxCell>
        <mxCell id="8vD22_smCyKk7x_BGVz0-421" value="" style="line;strokeWidth=1;fillColor=none;align=left;verticalAlign=middle;spacingTop=-1;spacingLeft=3;spacingRight=3;rotatable=0;labelPosition=right;points=[];portConstraint=eastwest;" vertex="1" parent="8vD22_smCyKk7x_BGVz0-420">
          <mxGeometry y="36" width="325" height="8" as="geometry" />
        </mxCell>
        <mxCell id="8vD22_smCyKk7x_BGVz0-422" value="+ AutenticacionBiometriaRequestResponse &#xa;autenticacionBiometrica (AutenticacionBiometriaRequest)" style="text;strokeColor=none;fillColor=none;align=left;verticalAlign=top;spacingLeft=4;spacingRight=4;overflow=hidden;rotatable=0;points=[[0,0.5],[1,0.5]];portConstraint=eastwest;" vertex="1" parent="8vD22_smCyKk7x_BGVz0-420">
          <mxGeometry y="44" width="325" height="80" as="geometry" />
        </mxCell>
        <mxCell id="8vD22_smCyKk7x_BGVz0-423" value="UserInfoBiometric&#xa;&lt;&lt;class&gt;&gt;" style="swimlane;fontStyle=1;align=center;verticalAlign=top;childLayout=stackLayout;horizontal=1;startSize=41;horizontalStack=0;resizeParent=1;resizeParentMax=0;resizeLast=0;collapsible=1;marginBottom=0;fillColor=#FFFFFF;" vertex="1" parent="1">
          <mxGeometry x="7.5" y="6694.75" width="332.5" height="176" as="geometry" />
        </mxCell>
        <mxCell id="8vD22_smCyKk7x_BGVz0-424" value="- idUsuario: String&#xa;- faceId: String&#xa;- externalId: String&#xa;- rutaBucketS3: String&#xa;- nombreArchivo: String" style="text;strokeColor=none;fillColor=none;align=left;verticalAlign=top;spacingLeft=4;spacingRight=4;overflow=hidden;rotatable=0;points=[[0,0.5],[1,0.5]];portConstraint=eastwest;" vertex="1" parent="8vD22_smCyKk7x_BGVz0-423">
          <mxGeometry y="41" width="332.5" height="85" as="geometry" />
        </mxCell>
        <mxCell id="8vD22_smCyKk7x_BGVz0-425" value="" style="line;strokeWidth=1;fillColor=none;align=left;verticalAlign=middle;spacingTop=-1;spacingLeft=3;spacingRight=3;rotatable=0;labelPosition=right;points=[];portConstraint=eastwest;" vertex="1" parent="8vD22_smCyKk7x_BGVz0-423">
          <mxGeometry y="126" width="332.5" height="8" as="geometry" />
        </mxCell>
        <mxCell id="8vD22_smCyKk7x_BGVz0-426" value="+ getters()&#xa;+ setter()" style="text;strokeColor=none;fillColor=none;align=left;verticalAlign=top;spacingLeft=4;spacingRight=4;overflow=hidden;rotatable=0;points=[[0,0.5],[1,0.5]];portConstraint=eastwest;" vertex="1" parent="8vD22_smCyKk7x_BGVz0-423">
          <mxGeometry y="134" width="332.5" height="42" as="geometry" />
        </mxCell>
        <mxCell id="8vD22_smCyKk7x_BGVz0-427" value="AutenticacionService&#xa;&lt;&lt;interface&gt;&gt;" style="swimlane;fontStyle=1;align=center;verticalAlign=top;childLayout=stackLayout;horizontal=1;startSize=40;horizontalStack=0;resizeParent=1;resizeParentMax=0;resizeLast=0;collapsible=1;marginBottom=0;fillColor=#67AB9F;" vertex="1" parent="1">
          <mxGeometry x="455" y="6394" width="160" height="102.5" as="geometry" />
        </mxCell>
        <mxCell id="8vD22_smCyKk7x_BGVz0-428" value="" style="endArrow=block;dashed=1;endFill=0;endSize=12;html=1;entryX=0.001;entryY=0.361;entryDx=0;entryDy=0;exitX=1.015;exitY=0.038;exitDx=0;exitDy=0;exitPerimeter=0;entryPerimeter=0;" edge="1" parent="1" source="8vD22_smCyKk7x_BGVz0-412" target="8vD22_smCyKk7x_BGVz0-427">
          <mxGeometry width="160" relative="1" as="geometry">
            <mxPoint x="220" y="6430" as="sourcePoint" />
            <mxPoint x="281.22" y="6431.5" as="targetPoint" />
          </mxGeometry>
        </mxCell>
        <mxCell id="8vD22_smCyKk7x_BGVz0-429" value="" style="shape=folder;tabWidth=470;tabHeight=40;tabPosition=left;strokeWidth=2;html=1;whiteSpace=wrap;align=center;" vertex="1" parent="1">
          <mxGeometry x="910" y="6620" width="890" height="360" as="geometry" />
        </mxCell>
        <mxCell id="8vD22_smCyKk7x_BGVz0-430" value="&lt;b style=&quot;font-size: 35px;&quot;&gt;&lt;font style=&quot;font-size: 35px;&quot;&gt;beans&lt;/font&gt;&lt;/b&gt;" style="text;html=1;strokeColor=none;fillColor=none;align=center;verticalAlign=middle;whiteSpace=wrap;rounded=0;fontSize=35;" vertex="1" parent="1">
          <mxGeometry x="940" y="6625.25" width="100" height="20" as="geometry" />
        </mxCell>
        <mxCell id="8vD22_smCyKk7x_BGVz0-431" value="RegistroController&#xa;&lt;&lt;class&gt;&gt;" style="swimlane;fontStyle=1;align=center;verticalAlign=top;childLayout=stackLayout;horizontal=1;startSize=45;horizontalStack=0;resizeParent=1;resizeParentMax=0;resizeLast=0;collapsible=1;marginBottom=0;fillColor=#FFFFFF;" vertex="1" parent="1">
          <mxGeometry x="35" y="5200" width="320" height="140" as="geometry" />
        </mxCell>
        <mxCell id="8vD22_smCyKk7x_BGVz0-432" value="- RegistroService registroService" style="text;strokeColor=none;fillColor=none;align=left;verticalAlign=top;spacingLeft=4;spacingRight=4;overflow=hidden;rotatable=0;points=[[0,0.5],[1,0.5]];portConstraint=eastwest;" vertex="1" parent="8vD22_smCyKk7x_BGVz0-431">
          <mxGeometry y="45" width="320" height="45" as="geometry" />
        </mxCell>
        <mxCell id="8vD22_smCyKk7x_BGVz0-433" value="" style="line;strokeWidth=1;fillColor=none;align=left;verticalAlign=middle;spacingTop=-1;spacingLeft=3;spacingRight=3;rotatable=0;labelPosition=right;points=[];portConstraint=eastwest;" vertex="1" parent="8vD22_smCyKk7x_BGVz0-431">
          <mxGeometry y="90" width="320" height="8" as="geometry" />
        </mxCell>
        <mxCell id="8vD22_smCyKk7x_BGVz0-434" value="+ UserInfoBiometricResponse &#xa;    registrarDatosBiometricos (UserInfoBiometricRequest )" style="text;strokeColor=none;fillColor=none;align=left;verticalAlign=top;spacingLeft=4;spacingRight=4;overflow=hidden;rotatable=0;points=[[0,0.5],[1,0.5]];portConstraint=eastwest;" vertex="1" parent="8vD22_smCyKk7x_BGVz0-431">
          <mxGeometry y="98" width="320" height="42" as="geometry" />
        </mxCell>
        <mxCell id="8vD22_smCyKk7x_BGVz0-435" value="" style="shape=folder;tabWidth=468;tabHeight=45;tabPosition=left;strokeWidth=2;html=1;whiteSpace=wrap;align=center;" vertex="1" parent="1">
          <mxGeometry x="912.5" y="5845" width="867.5" height="280" as="geometry" />
        </mxCell>
        <mxCell id="8vD22_smCyKk7x_BGVz0-436" value="&lt;b style=&quot;font-size: 35px;&quot;&gt;&lt;font style=&quot;font-size: 35px;&quot;&gt;beans&lt;/font&gt;&lt;/b&gt;" style="text;html=1;strokeColor=none;fillColor=none;align=center;verticalAlign=middle;whiteSpace=wrap;rounded=0;fontSize=35;" vertex="1" parent="1">
          <mxGeometry x="955" y="5860" width="40" height="20" as="geometry" />
        </mxCell>
        <mxCell id="8vD22_smCyKk7x_BGVz0-437" value="AutenticacionBiometriaRequest&#xa;&lt;&lt;class&gt;&gt;" style="swimlane;fontStyle=1;align=center;verticalAlign=top;childLayout=stackLayout;horizontal=1;startSize=41;horizontalStack=0;resizeParent=1;resizeParentMax=0;resizeLast=0;collapsible=1;marginBottom=0;fillColor=#FFFFFF;" vertex="1" parent="1">
          <mxGeometry x="962.5" y="5924.75" width="260" height="150" as="geometry" />
        </mxCell>
        <mxCell id="8vD22_smCyKk7x_BGVz0-438" value="- idUsuario: String&#xa;- fotografia: String" style="text;strokeColor=none;fillColor=none;align=left;verticalAlign=top;spacingLeft=4;spacingRight=4;overflow=hidden;rotatable=0;points=[[0,0.5],[1,0.5]];portConstraint=eastwest;" vertex="1" parent="8vD22_smCyKk7x_BGVz0-437">
          <mxGeometry y="41" width="260" height="49" as="geometry" />
        </mxCell>
        <mxCell id="8vD22_smCyKk7x_BGVz0-439" value="" style="line;strokeWidth=1;fillColor=none;align=left;verticalAlign=middle;spacingTop=-1;spacingLeft=3;spacingRight=3;rotatable=0;labelPosition=right;points=[];portConstraint=eastwest;" vertex="1" parent="8vD22_smCyKk7x_BGVz0-437">
          <mxGeometry y="90" width="260" height="8" as="geometry" />
        </mxCell>
        <mxCell id="8vD22_smCyKk7x_BGVz0-440" value="+ getters()&#xa;+ setter()" style="text;strokeColor=none;fillColor=none;align=left;verticalAlign=top;spacingLeft=4;spacingRight=4;overflow=hidden;rotatable=0;points=[[0,0.5],[1,0.5]];portConstraint=eastwest;" vertex="1" parent="8vD22_smCyKk7x_BGVz0-437">
          <mxGeometry y="98" width="260" height="52" as="geometry" />
        </mxCell>
        <mxCell id="8vD22_smCyKk7x_BGVz0-441" value="AutenticacionBiometriaRequestResponse&#xa;&lt;&lt;class&gt;&gt;" style="swimlane;fontStyle=1;align=center;verticalAlign=top;childLayout=stackLayout;horizontal=1;startSize=41;horizontalStack=0;resizeParent=1;resizeParentMax=0;resizeLast=0;collapsible=1;marginBottom=0;fillColor=#FFFFFF;" vertex="1" parent="1">
          <mxGeometry x="1322.5" y="5924.75" width="310" height="160" as="geometry" />
        </mxCell>
        <mxCell id="8vD22_smCyKk7x_BGVz0-442" value="- rostroId: String&#xa;- externalId: String&#xa;- fotografia: String" style="text;strokeColor=none;fillColor=none;align=left;verticalAlign=top;spacingLeft=4;spacingRight=4;overflow=hidden;rotatable=0;points=[[0,0.5],[1,0.5]];portConstraint=eastwest;" vertex="1" parent="8vD22_smCyKk7x_BGVz0-441">
          <mxGeometry y="41" width="310" height="69" as="geometry" />
        </mxCell>
        <mxCell id="8vD22_smCyKk7x_BGVz0-443" value="" style="line;strokeWidth=1;fillColor=none;align=left;verticalAlign=middle;spacingTop=-1;spacingLeft=3;spacingRight=3;rotatable=0;labelPosition=right;points=[];portConstraint=eastwest;" vertex="1" parent="8vD22_smCyKk7x_BGVz0-441">
          <mxGeometry y="110" width="310" height="8" as="geometry" />
        </mxCell>
        <mxCell id="8vD22_smCyKk7x_BGVz0-444" value="+ getters()&#xa;+ setter()" style="text;strokeColor=none;fillColor=none;align=left;verticalAlign=top;spacingLeft=4;spacingRight=4;overflow=hidden;rotatable=0;points=[[0,0.5],[1,0.5]];portConstraint=eastwest;" vertex="1" parent="8vD22_smCyKk7x_BGVz0-441">
          <mxGeometry y="118" width="310" height="42" as="geometry" />
        </mxCell>
        <mxCell id="8vD22_smCyKk7x_BGVz0-445" value="" style="shape=folder;tabWidth=470;tabHeight=50;tabPosition=left;strokeWidth=2;html=1;whiteSpace=wrap;align=center;" vertex="1" parent="1">
          <mxGeometry x="910" y="4113" width="860" height="430" as="geometry" />
        </mxCell>
        <mxCell id="8vD22_smCyKk7x_BGVz0-446" value="&lt;b style=&quot;font-size: 35px;&quot;&gt;&lt;font style=&quot;font-size: 35px;&quot;&gt;beans&lt;/font&gt;&lt;/b&gt;" style="text;html=1;strokeColor=none;fillColor=none;align=center;verticalAlign=middle;whiteSpace=wrap;rounded=0;fontSize=35;" vertex="1" parent="1">
          <mxGeometry x="957.5" y="4130" width="40" height="20" as="geometry" />
        </mxCell>
        <mxCell id="8vD22_smCyKk7x_BGVz0-447" value="UsuarioResponse &#xa;&lt;&lt;class&gt;&gt;" style="swimlane;fontStyle=1;align=center;verticalAlign=top;childLayout=stackLayout;horizontal=1;startSize=41;horizontalStack=0;resizeParent=1;resizeParentMax=0;resizeLast=0;collapsible=1;marginBottom=0;fillColor=#FFFFFF;" vertex="1" parent="1">
          <mxGeometry x="960" y="4223" width="260" height="131" as="geometry" />
        </mxCell>
        <mxCell id="8vD22_smCyKk7x_BGVz0-448" value="- usuario: String &#xa;- activo: boolean " style="text;strokeColor=none;fillColor=none;align=left;verticalAlign=top;spacingLeft=4;spacingRight=4;overflow=hidden;rotatable=0;points=[[0,0.5],[1,0.5]];portConstraint=eastwest;" vertex="1" parent="8vD22_smCyKk7x_BGVz0-447">
          <mxGeometry y="41" width="260" height="40" as="geometry" />
        </mxCell>
        <mxCell id="8vD22_smCyKk7x_BGVz0-449" value="" style="line;strokeWidth=1;fillColor=none;align=left;verticalAlign=middle;spacingTop=-1;spacingLeft=3;spacingRight=3;rotatable=0;labelPosition=right;points=[];portConstraint=eastwest;" vertex="1" parent="8vD22_smCyKk7x_BGVz0-447">
          <mxGeometry y="81" width="260" height="8" as="geometry" />
        </mxCell>
        <mxCell id="8vD22_smCyKk7x_BGVz0-450" value="+ getters()&#xa;+ setter()" style="text;strokeColor=none;fillColor=none;align=left;verticalAlign=top;spacingLeft=4;spacingRight=4;overflow=hidden;rotatable=0;points=[[0,0.5],[1,0.5]];portConstraint=eastwest;" vertex="1" parent="8vD22_smCyKk7x_BGVz0-447">
          <mxGeometry y="89" width="260" height="42" as="geometry" />
        </mxCell>
        <mxCell id="8vD22_smCyKk7x_BGVz0-451" value="UsuarioRequest&#xa;&lt;&lt;class&gt;&gt;" style="swimlane;fontStyle=1;align=center;verticalAlign=top;childLayout=stackLayout;horizontal=1;startSize=41;horizontalStack=0;resizeParent=1;resizeParentMax=0;resizeLast=0;collapsible=1;marginBottom=0;fillColor=#FFFFFF;" vertex="1" parent="1">
          <mxGeometry x="1320" y="4223" width="310" height="180" as="geometry" />
        </mxCell>
        <mxCell id="8vD22_smCyKk7x_BGVz0-452" value="- usuario: String&#xa;- clave: String&#xa;- nombre: String&#xa;- apellido: String&#xa;- identificación: String&#xa;- idPerfil: BigInteger" style="text;strokeColor=none;fillColor=none;align=left;verticalAlign=top;spacingLeft=4;spacingRight=4;overflow=hidden;rotatable=0;points=[[0,0.5],[1,0.5]];portConstraint=eastwest;" vertex="1" parent="8vD22_smCyKk7x_BGVz0-451">
          <mxGeometry y="41" width="310" height="89" as="geometry" />
        </mxCell>
        <mxCell id="8vD22_smCyKk7x_BGVz0-453" value="" style="line;strokeWidth=1;fillColor=none;align=left;verticalAlign=middle;spacingTop=-1;spacingLeft=3;spacingRight=3;rotatable=0;labelPosition=right;points=[];portConstraint=eastwest;" vertex="1" parent="8vD22_smCyKk7x_BGVz0-451">
          <mxGeometry y="130" width="310" height="8" as="geometry" />
        </mxCell>
        <mxCell id="8vD22_smCyKk7x_BGVz0-454" value="+ getters()&#xa;+ setter()" style="text;strokeColor=none;fillColor=none;align=left;verticalAlign=top;spacingLeft=4;spacingRight=4;overflow=hidden;rotatable=0;points=[[0,0.5],[1,0.5]];portConstraint=eastwest;" vertex="1" parent="8vD22_smCyKk7x_BGVz0-451">
          <mxGeometry y="138" width="310" height="42" as="geometry" />
        </mxCell>
        <mxCell id="8vD22_smCyKk7x_BGVz0-455" value="AutenticacionBiometriaRequest&#xa;&lt;&lt;class&gt;&gt;" style="swimlane;fontStyle=1;align=center;verticalAlign=top;childLayout=stackLayout;horizontal=1;startSize=41;horizontalStack=0;resizeParent=1;resizeParentMax=0;resizeLast=0;collapsible=1;marginBottom=0;fillColor=#FFFFFF;" vertex="1" parent="1">
          <mxGeometry x="950" y="6705" width="272.5" height="150" as="geometry" />
        </mxCell>
        <mxCell id="8vD22_smCyKk7x_BGVz0-456" value="- idUsuario: String&#xa;- fotografia: String" style="text;strokeColor=none;fillColor=none;align=left;verticalAlign=top;spacingLeft=4;spacingRight=4;overflow=hidden;rotatable=0;points=[[0,0.5],[1,0.5]];portConstraint=eastwest;" vertex="1" parent="8vD22_smCyKk7x_BGVz0-455">
          <mxGeometry y="41" width="272.5" height="49" as="geometry" />
        </mxCell>
        <mxCell id="8vD22_smCyKk7x_BGVz0-457" value="" style="line;strokeWidth=1;fillColor=none;align=left;verticalAlign=middle;spacingTop=-1;spacingLeft=3;spacingRight=3;rotatable=0;labelPosition=right;points=[];portConstraint=eastwest;" vertex="1" parent="8vD22_smCyKk7x_BGVz0-455">
          <mxGeometry y="90" width="272.5" height="8" as="geometry" />
        </mxCell>
        <mxCell id="8vD22_smCyKk7x_BGVz0-458" value="+ getters()&#xa;+ setter()" style="text;strokeColor=none;fillColor=none;align=left;verticalAlign=top;spacingLeft=4;spacingRight=4;overflow=hidden;rotatable=0;points=[[0,0.5],[1,0.5]];portConstraint=eastwest;" vertex="1" parent="8vD22_smCyKk7x_BGVz0-455">
          <mxGeometry y="98" width="272.5" height="52" as="geometry" />
        </mxCell>
        <mxCell id="8vD22_smCyKk7x_BGVz0-459" value="AutenticacionBiometriaRequestResponse&#xa;&lt;&lt;class&gt;&gt;" style="swimlane;fontStyle=1;align=center;verticalAlign=top;childLayout=stackLayout;horizontal=1;startSize=41;horizontalStack=0;resizeParent=1;resizeParentMax=0;resizeLast=0;collapsible=1;marginBottom=0;fillColor=#FFFFFF;" vertex="1" parent="1">
          <mxGeometry x="1328.75" y="6705" width="310" height="150" as="geometry" />
        </mxCell>
        <mxCell id="8vD22_smCyKk7x_BGVz0-460" value="- rostroId: String&#xa;- externalId: String&#xa;- fotografia: String" style="text;strokeColor=none;fillColor=none;align=left;verticalAlign=top;spacingLeft=4;spacingRight=4;overflow=hidden;rotatable=0;points=[[0,0.5],[1,0.5]];portConstraint=eastwest;" vertex="1" parent="8vD22_smCyKk7x_BGVz0-459">
          <mxGeometry y="41" width="310" height="59" as="geometry" />
        </mxCell>
        <mxCell id="8vD22_smCyKk7x_BGVz0-461" value="" style="line;strokeWidth=1;fillColor=none;align=left;verticalAlign=middle;spacingTop=-1;spacingLeft=3;spacingRight=3;rotatable=0;labelPosition=right;points=[];portConstraint=eastwest;" vertex="1" parent="8vD22_smCyKk7x_BGVz0-459">
          <mxGeometry y="100" width="310" height="8" as="geometry" />
        </mxCell>
        <mxCell id="8vD22_smCyKk7x_BGVz0-462" value="+ getters()&#xa;+ setter()" style="text;strokeColor=none;fillColor=none;align=left;verticalAlign=top;spacingLeft=4;spacingRight=4;overflow=hidden;rotatable=0;points=[[0,0.5],[1,0.5]];portConstraint=eastwest;" vertex="1" parent="8vD22_smCyKk7x_BGVz0-459">
          <mxGeometry y="108" width="310" height="42" as="geometry" />
        </mxCell>
        <mxCell id="8vD22_smCyKk7x_BGVz0-463" value="" style="shape=folder;tabWidth=970;tabHeight=50;tabPosition=left;strokeWidth=2;html=1;whiteSpace=wrap;align=center;" vertex="1" parent="1">
          <mxGeometry x="-20" y="7070" width="1880" height="300" as="geometry" />
        </mxCell>
        <mxCell id="8vD22_smCyKk7x_BGVz0-464" value="" style="shape=folder;tabWidth=1083;tabHeight=40;tabPosition=left;strokeWidth=2;html=1;whiteSpace=wrap;align=center;" vertex="1" parent="1">
          <mxGeometry x="-2.5" y="7140" width="1812.5" height="210" as="geometry" />
        </mxCell>
        <mxCell id="8vD22_smCyKk7x_BGVz0-465" value="&lt;b style=&quot;font-size: 35px;&quot;&gt;&lt;font style=&quot;font-size: 35px;&quot;&gt;service&lt;/font&gt;&lt;/b&gt;" style="text;html=1;strokeColor=none;fillColor=none;align=center;verticalAlign=middle;whiteSpace=wrap;rounded=0;fontSize=35;" vertex="1" parent="1">
          <mxGeometry x="7.5" y="7150" width="152.5" height="20" as="geometry" />
        </mxCell>
        <mxCell id="8vD22_smCyKk7x_BGVz0-466" value="S3AlmacenamientoServiceImpl&#xa;&lt;&lt;class&gt;&gt;" style="swimlane;fontStyle=1;align=center;verticalAlign=top;childLayout=stackLayout;horizontal=1;startSize=36;horizontalStack=0;resizeParent=1;resizeParentMax=0;resizeLast=0;collapsible=1;marginBottom=0;fillColor=#FFFFFF;" vertex="1" parent="1">
          <mxGeometry x="35" y="7210" width="235" height="98" as="geometry" />
        </mxCell>
        <mxCell id="8vD22_smCyKk7x_BGVz0-467" value="-" style="text;strokeColor=none;fillColor=none;align=left;verticalAlign=top;spacingLeft=4;spacingRight=4;overflow=hidden;rotatable=0;points=[[0,0.5],[1,0.5]];portConstraint=eastwest;" vertex="1" parent="8vD22_smCyKk7x_BGVz0-466">
          <mxGeometry y="36" width="235" height="54" as="geometry" />
        </mxCell>
        <mxCell id="8vD22_smCyKk7x_BGVz0-468" value="" style="line;strokeWidth=1;fillColor=none;align=left;verticalAlign=middle;spacingTop=-1;spacingLeft=3;spacingRight=3;rotatable=0;labelPosition=right;points=[];portConstraint=eastwest;" vertex="1" parent="8vD22_smCyKk7x_BGVz0-466">
          <mxGeometry y="90" width="235" height="8" as="geometry" />
        </mxCell>
        <mxCell id="8vD22_smCyKk7x_BGVz0-469" value="&lt;span style=&quot;font-size: 35px;&quot;&gt;&lt;b style=&quot;font-size: 35px;&quot;&gt;autenticacion.almacenamiento&lt;/b&gt;&lt;/span&gt;" style="text;html=1;strokeColor=none;fillColor=none;align=center;verticalAlign=middle;whiteSpace=wrap;rounded=0;fontSize=35;" vertex="1" parent="1">
          <mxGeometry x="-15" y="7080" width="535" height="20" as="geometry" />
        </mxCell>
        <mxCell id="8vD22_smCyKk7x_BGVz0-470" value="" style="endArrow=block;dashed=1;endFill=0;endSize=12;html=1;entryX=0.004;entryY=0.205;entryDx=0;entryDy=0;exitX=1;exitY=0.5;exitDx=0;exitDy=0;entryPerimeter=0;" edge="1" parent="1" source="8vD22_smCyKk7x_BGVz0-467" target="8vD22_smCyKk7x_BGVz0-473">
          <mxGeometry width="160" relative="1" as="geometry">
            <mxPoint x="305.0000000000007" y="7278.75" as="sourcePoint" />
            <mxPoint x="392.5000000000007" y="7278.25" as="targetPoint" />
          </mxGeometry>
        </mxCell>
        <mxCell id="8vD22_smCyKk7x_BGVz0-471" value="AlmacenamientoService&#xa;&lt;&lt;interface&gt;&gt;" style="swimlane;fontStyle=1;align=center;verticalAlign=top;childLayout=stackLayout;horizontal=1;startSize=36;horizontalStack=0;resizeParent=1;resizeParentMax=0;resizeLast=0;collapsible=1;marginBottom=0;fillColor=#FFFFFF;" vertex="1" parent="1">
          <mxGeometry x="330" y="7210" width="237.5" height="124" as="geometry" />
        </mxCell>
        <mxCell id="8vD22_smCyKk7x_BGVz0-472" value="" style="line;strokeWidth=1;fillColor=none;align=left;verticalAlign=middle;spacingTop=-1;spacingLeft=3;spacingRight=3;rotatable=0;labelPosition=right;points=[];portConstraint=eastwest;" vertex="1" parent="8vD22_smCyKk7x_BGVz0-471">
          <mxGeometry y="36" width="237.5" height="8" as="geometry" />
        </mxCell>
        <mxCell id="8vD22_smCyKk7x_BGVz0-473" value="+ cargarObjeto()&#xa;+ descargarObjeto()" style="text;strokeColor=none;fillColor=none;align=left;verticalAlign=top;spacingLeft=4;spacingRight=4;overflow=hidden;rotatable=0;points=[[0,0.5],[1,0.5]];portConstraint=eastwest;" vertex="1" parent="8vD22_smCyKk7x_BGVz0-471">
          <mxGeometry y="44" width="237.5" height="80" as="geometry" />
        </mxCell>
      </root>
    </mxGraphModel>
  </diagram>
</mxfile>
